<svg xmlns="http://www.w3.org/2000/svg" xmlns:xlink="http://www.w3.org/1999/xlink" width="500" zoomAndPan="magnify" viewBox="0 0 375 374.999991" height="500" preserveAspectRatio="xMidYMid meet" version="1.0"><defs><g/><clipPath id="6e5f3f11f0"><path d="M 327 36 L 364 36 L 364 92 L 327 92 Z M 327 36 " clip-rule="nonzero"/></clipPath><clipPath id="5574e9ef3e"><path d="M 88.207031 -31.15625 L 374.03125 40.828125 L 287.027344 386.292969 L 1.203125 314.304688 Z M 88.207031 -31.15625 " clip-rule="nonzero"/></clipPath><clipPath id="c9d1fdde29"><path d="M 88.207031 -31.15625 L 374.03125 40.828125 L 287.027344 386.292969 L 1.203125 314.304688 Z M 88.207031 -31.15625 " clip-rule="nonzero"/></clipPath><clipPath id="20bfc04a32"><path d="M 88.207031 -31.15625 L 374.03125 40.828125 L 287.027344 386.292969 L 1.203125 314.304688 Z M 88.207031 -31.15625 " clip-rule="nonzero"/></clipPath><clipPath id="522c840277"><path d="M 327 63 L 352 63 L 352 92 L 327 92 Z M 327 63 " clip-rule="nonzero"/></clipPath><clipPath id="2f04112e5c"><path d="M 88.207031 -31.15625 L 374.03125 40.828125 L 287.027344 386.292969 L 1.203125 314.304688 Z M 88.207031 -31.15625 " clip-rule="nonzero"/></clipPath><clipPath id="b4d628dd49"><path d="M 88.207031 -31.15625 L 374.03125 40.828125 L 287.027344 386.292969 L 1.203125 314.304688 Z M 88.207031 -31.15625 " clip-rule="nonzero"/></clipPath><clipPath id="3c6f219071"><path d="M 88.207031 -31.15625 L 374.03125 40.828125 L 287.027344 386.292969 L 1.203125 314.304688 Z M 88.207031 -31.15625 " clip-rule="nonzero"/></clipPath><clipPath id="86748ad91d"><path d="M 12 9 L 357 9 L 357 372 L 12 372 Z M 12 9 " clip-rule="nonzero"/></clipPath><clipPath id="7bb2a9163e"><path d="M 88.207031 -31.15625 L 374.03125 40.828125 L 287.027344 386.292969 L 1.203125 314.304688 Z M 88.207031 -31.15625 " clip-rule="nonzero"/></clipPath><clipPath id="a2a79c548d"><path d="M 88.207031 -31.15625 L 374.03125 40.828125 L 287.027344 386.292969 L 1.203125 314.304688 Z M 88.207031 -31.15625 " clip-rule="nonzero"/></clipPath><clipPath id="2f362c9c73"><path d="M 88.207031 -31.15625 L 374.03125 40.828125 L 287.027344 386.292969 L 1.203125 314.304688 Z M 88.207031 -31.15625 " clip-rule="nonzero"/></clipPath><clipPath id="adc9d08d07"><path d="M 12 243 L 266 243 L 266 372 L 12 372 Z M 12 243 " clip-rule="nonzero"/></clipPath><clipPath id="24d5f9c7bc"><path d="M 88.207031 -31.15625 L 374.03125 40.828125 L 287.027344 386.292969 L 1.203125 314.304688 Z M 88.207031 -31.15625 " clip-rule="nonzero"/></clipPath><clipPath id="5fbf196cf1"><path d="M 88.207031 -31.15625 L 374.03125 40.828125 L 287.027344 386.292969 L 1.203125 314.304688 Z M 88.207031 -31.15625 " clip-rule="nonzero"/></clipPath><clipPath id="da822c22f2"><path d="M 88.207031 -31.15625 L 374.03125 40.828125 L 287.027344 386.292969 L 1.203125 314.304688 Z M 88.207031 -31.15625 " clip-rule="nonzero"/></clipPath><clipPath id="19b7b943a7"><path d="M 238 318 L 266 318 L 266 352 L 238 352 Z M 238 318 " clip-rule="nonzero"/></clipPath><clipPath id="fe4b845e17"><path d="M 88.207031 -31.15625 L 374.03125 40.828125 L 287.027344 386.292969 L 1.203125 314.304688 Z M 88.207031 -31.15625 " clip-rule="nonzero"/></clipPath><clipPath id="bf3862a0cb"><path d="M 88.207031 -31.15625 L 374.03125 40.828125 L 287.027344 386.292969 L 1.203125 314.304688 Z M 88.207031 -31.15625 " clip-rule="nonzero"/></clipPath><clipPath id="263baa29b9"><path d="M 88.207031 -31.15625 L 374.03125 40.828125 L 287.027344 386.292969 L 1.203125 314.304688 Z M 88.207031 -31.15625 " clip-rule="nonzero"/></clipPath><clipPath id="105d58e6ab"><path d="M 80 232 L 150 232 L 150 254 L 80 254 Z M 80 232 " clip-rule="nonzero"/></clipPath><clipPath id="c85b6d8fac"><path d="M 88.207031 -31.15625 L 374.03125 40.828125 L 287.027344 386.292969 L 1.203125 314.304688 Z M 88.207031 -31.15625 " clip-rule="nonzero"/></clipPath><clipPath id="53af2e32e0"><path d="M 88.207031 -31.15625 L 374.03125 40.828125 L 287.027344 386.292969 L 1.203125 314.304688 Z M 88.207031 -31.15625 " clip-rule="nonzero"/></clipPath><clipPath id="c9152166ef"><path d="M 88.207031 -31.15625 L 374.03125 40.828125 L 287.027344 386.292969 L 1.203125 314.304688 Z M 88.207031 -31.15625 " clip-rule="nonzero"/></clipPath><clipPath id="22584c762a"><path d="M 252 245 L 317 245 L 317 263 L 252 263 Z M 252 245 " clip-rule="nonzero"/></clipPath><clipPath id="44158f40f9"><path d="M 88.207031 -31.15625 L 374.03125 40.828125 L 287.027344 386.292969 L 1.203125 314.304688 Z M 88.207031 -31.15625 " clip-rule="nonzero"/></clipPath><clipPath id="c6bc2c479f"><path d="M 88.207031 -31.15625 L 374.03125 40.828125 L 287.027344 386.292969 L 1.203125 314.304688 Z M 88.207031 -31.15625 " clip-rule="nonzero"/></clipPath><clipPath id="0a0b70248e"><path d="M 88.207031 -31.15625 L 374.03125 40.828125 L 287.027344 386.292969 L 1.203125 314.304688 Z M 88.207031 -31.15625 " clip-rule="nonzero"/></clipPath><clipPath id="4bc3081254"><path d="M 259 130 L 323 130 L 323 142 L 259 142 Z M 259 130 " clip-rule="nonzero"/></clipPath><clipPath id="bd5472c67f"><path d="M 88.207031 -31.15625 L 374.03125 40.828125 L 287.027344 386.292969 L 1.203125 314.304688 Z M 88.207031 -31.15625 " clip-rule="nonzero"/></clipPath><clipPath id="b9d10dd502"><path d="M 88.207031 -31.15625 L 374.03125 40.828125 L 287.027344 386.292969 L 1.203125 314.304688 Z M 88.207031 -31.15625 " clip-rule="nonzero"/></clipPath><clipPath id="2fa3bf1e32"><path d="M 88.207031 -31.15625 L 374.03125 40.828125 L 287.027344 386.292969 L 1.203125 314.304688 Z M 88.207031 -31.15625 " clip-rule="nonzero"/></clipPath><clipPath id="9f59beffba"><path d="M 118 70 L 196 70 L 196 82 L 118 82 Z M 118 70 " clip-rule="nonzero"/></clipPath><clipPath id="d767aed2a0"><path d="M 88.207031 -31.15625 L 374.03125 40.828125 L 287.027344 386.292969 L 1.203125 314.304688 Z M 88.207031 -31.15625 " clip-rule="nonzero"/></clipPath><clipPath id="e0f70a3292"><path d="M 88.207031 -31.15625 L 374.03125 40.828125 L 287.027344 386.292969 L 1.203125 314.304688 Z M 88.207031 -31.15625 " clip-rule="nonzero"/></clipPath><clipPath id="199b5753de"><path d="M 88.207031 -31.15625 L 374.03125 40.828125 L 287.027344 386.292969 L 1.203125 314.304688 Z M 88.207031 -31.15625 " clip-rule="nonzero"/></clipPath><clipPath id="5ec8a55f20"><path d="M 195 204 L 273 204 L 273 217 L 195 217 Z M 195 204 " clip-rule="nonzero"/></clipPath><clipPath id="cc979e98a0"><path d="M 88.207031 -31.15625 L 374.03125 40.828125 L 287.027344 386.292969 L 1.203125 314.304688 Z M 88.207031 -31.15625 " clip-rule="nonzero"/></clipPath><clipPath id="53ae8a667b"><path d="M 88.207031 -31.15625 L 374.03125 40.828125 L 287.027344 386.292969 L 1.203125 314.304688 Z M 88.207031 -31.15625 " clip-rule="nonzero"/></clipPath><clipPath id="0c8de2598b"><path d="M 88.207031 -31.15625 L 374.03125 40.828125 L 287.027344 386.292969 L 1.203125 314.304688 Z M 88.207031 -31.15625 " clip-rule="nonzero"/></clipPath><clipPath id="2811e35157"><path d="M 120.003906 67.292969 L 203.4375 67.292969 L 203.4375 87.539062 L 120.003906 87.539062 Z M 120.003906 67.292969 " clip-rule="nonzero"/></clipPath><clipPath id="211193e00b"><path d="M 199.613281 87.003906 C 193.238281 82.355469 192.039062 82.054688 190.238281 81.679688 C 187.613281 81.15625 184.3125 81.832031 180.1875 81.230469 C 173.289062 80.179688 160.015625 75.304688 153.039062 74.480469 C 148.839844 73.957031 145.988281 74.929688 142.613281 74.480469 C 139.390625 74.105469 133.464844 73.128906 133.390625 72.15625 C 133.238281 71.40625 136.464844 70.054688 137.8125 69.679688 C 138.9375 69.378906 139.539062 69.605469 140.890625 69.605469 C 143.363281 69.605469 148.089844 69.679688 151.765625 70.054688 C 155.664062 70.429688 161.4375 71.105469 163.6875 71.929688 C 164.589844 72.304688 165.1875 72.53125 165.5625 73.207031 C 166.089844 74.03125 166.613281 76.128906 166.015625 76.957031 C 165.1875 78.082031 162.339844 78.082031 159.640625 78.15625 C 154.6875 78.230469 141.5625 76.730469 138.714844 74.929688 C 137.664062 74.332031 137.214844 73.429688 137.214844 72.753906 C 137.140625 72.082031 137.738281 71.179688 138.1875 70.804688 C 138.640625 70.429688 139.164062 70.355469 139.839844 70.429688 C 141.039062 70.503906 142.839844 71.78125 144.863281 72.304688 C 147.789062 73.054688 153.714844 73.28125 155.738281 74.03125 C 156.640625 74.332031 157.164062 74.554688 157.539062 75.003906 C 157.914062 75.378906 158.214844 75.980469 158.140625 76.503906 C 158.140625 77.105469 157.6875 78.082031 157.238281 78.457031 C 156.863281 78.753906 156.339844 78.832031 155.664062 78.90625 C 154.3125 78.980469 152.363281 78.753906 149.664062 78.230469 C 143.8125 77.253906 125.589844 72.90625 121.988281 71.40625 C 121.089844 71.03125 120.714844 70.804688 120.414062 70.429688 C 120.113281 70.054688 119.964844 69.53125 120.039062 69.082031 C 120.113281 68.628906 120.640625 67.878906 121.015625 67.65625 C 121.390625 67.429688 121.765625 67.429688 122.363281 67.503906 C 124.015625 67.582031 130.238281 68.707031 131.4375 70.054688 C 132.039062 70.730469 131.964844 72.003906 131.738281 72.53125 C 131.589844 72.980469 131.140625 73.28125 130.6875 73.429688 C 130.164062 73.582031 129.265625 73.582031 128.738281 73.207031 C 128.289062 72.90625 127.765625 72.082031 127.839844 71.554688 C 127.914062 70.878906 128.738281 69.753906 129.339844 69.457031 C 129.863281 69.304688 130.839844 69.457031 131.289062 69.90625 C 131.738281 70.355469 132.113281 71.707031 131.8125 72.378906 C 131.589844 72.980469 130.613281 73.429688 129.640625 73.582031 C 127.613281 73.730469 121.914062 72.003906 120.714844 70.730469 C 120.113281 70.128906 119.964844 69.230469 120.1875 68.628906 C 120.339844 68.105469 120.9375 67.65625 121.914062 67.429688 C 125.664062 66.679688 144.339844 72.832031 150.414062 73.804688 C 153.1875 74.253906 155.363281 73.878906 156.640625 74.40625 C 157.238281 74.707031 157.613281 75.003906 157.839844 75.457031 C 158.140625 75.90625 158.214844 76.582031 158.140625 77.03125 C 157.988281 77.554688 157.613281 78.15625 157.238281 78.457031 C 156.863281 78.753906 156.488281 78.832031 155.664062 78.90625 C 153.039062 78.980469 141.1875 76.429688 138.714844 74.929688 C 137.8125 74.40625 137.363281 73.957031 137.214844 73.28125 C 137.140625 72.605469 137.664062 71.253906 138.1875 70.804688 C 138.640625 70.429688 139.015625 70.429688 139.839844 70.429688 C 143.0625 70.28125 160.839844 71.40625 162.9375 73.804688 C 163.6875 74.707031 163.6875 76.28125 163.015625 76.957031 C 161.515625 78.304688 152.738281 74.855469 147.714844 74.554688 C 142.988281 74.332031 136.539062 75.753906 133.839844 75.082031 C 132.5625 74.78125 131.8125 74.40625 131.214844 73.65625 C 130.6875 72.90625 130.390625 71.554688 130.539062 70.582031 C 130.6875 69.679688 131.0625 68.554688 132.113281 68.03125 C 135.039062 66.605469 145.3125 68.628906 152.363281 69.832031 C 160.464844 71.179688 170.589844 75.082031 177.9375 76.207031 C 183.265625 77.03125 188.589844 76.28125 191.964844 77.105469 C 194.0625 77.628906 195.265625 78.230469 196.914062 79.207031 C 198.863281 80.332031 202.089844 82.582031 202.914062 83.855469 C 203.363281 84.457031 203.4375 84.980469 203.363281 85.429688 C 203.363281 85.957031 203.0625 86.554688 202.6875 86.929688 C 202.3125 87.304688 201.640625 87.53125 201.1875 87.53125 C 200.664062 87.53125 199.613281 87.003906 199.613281 87.003906 " clip-rule="nonzero"/></clipPath><clipPath id="653ed63698"><path d="M 24.769531 177.605469 L 25.128906 177.605469 L 25.128906 177.933594 L 24.769531 177.933594 Z M 24.769531 177.605469 " clip-rule="nonzero"/></clipPath><clipPath id="9d856affc0"><path d="M 25.105469 177.847656 C 24.429688 178.070312 25.03125 177.621094 25.03125 177.621094 " clip-rule="nonzero"/></clipPath><clipPath id="3e8aff2f10"><path d="M 135.769531 293.609375 L 142.507812 293.609375 L 142.507812 296.851562 L 135.769531 296.851562 Z M 135.769531 293.609375 " clip-rule="nonzero"/></clipPath><clipPath id="19d417cccb"><path d="M 136.039062 293.617188 C 142.566406 296.242188 142.191406 296.765625 142.191406 296.765625 C 142.191406 296.765625 142.488281 296.015625 142.488281 296.015625 C 142.488281 296.015625 142.488281 296.691406 142.265625 296.765625 C 141.816406 296.992188 140.613281 296.390625 139.640625 296.09375 C 138.441406 295.640625 136.039062 294.890625 135.816406 294.367188 C 135.664062 294.066406 136.039062 293.617188 136.039062 293.617188 " clip-rule="nonzero"/></clipPath><clipPath id="cc24727304"><path d="M 188.902344 305.953125 L 190.53125 305.953125 L 190.53125 308.289062 L 188.902344 308.289062 Z M 188.902344 305.953125 " clip-rule="nonzero"/></clipPath><clipPath id="2b09f9c1f6"><path d="M 188.914062 307.640625 C 189.515625 305.84375 190.414062 306.21875 190.414062 306.441406 C 190.414062 306.667969 189.515625 307.34375 189.289062 307.265625 C 189.140625 307.191406 188.988281 306.140625 189.140625 305.992188 C 189.363281 305.917969 190.265625 306.21875 190.414062 306.59375 C 190.640625 306.96875 190.414062 308.09375 190.113281 308.242188 C 189.816406 308.390625 188.914062 307.640625 188.914062 307.640625 " clip-rule="nonzero"/></clipPath><clipPath id="ea32883b7c"><path d="M 189.246094 305.167969 L 190.722656 305.167969 L 190.722656 306.390625 L 189.246094 306.390625 Z M 189.246094 305.167969 " clip-rule="nonzero"/></clipPath><clipPath id="fea5cd045e"><path d="M 190.714844 305.617188 C 190.039062 306.59375 189.441406 306.441406 189.289062 306.21875 C 189.214844 305.992188 189.289062 305.390625 189.515625 305.242188 C 189.664062 305.09375 190.488281 305.316406 190.488281 305.316406 " clip-rule="nonzero"/></clipPath><clipPath id="15e5203919"><path d="M 186.867188 304.921875 L 190.972656 304.921875 L 190.972656 307 L 186.867188 307 Z M 186.867188 304.921875 " clip-rule="nonzero"/></clipPath><clipPath id="460ad0614b"><path d="M 187.414062 304.941406 C 190.941406 305.84375 190.640625 306.816406 190.488281 306.890625 C 190.265625 306.96875 189.515625 305.992188 189.589844 305.84375 C 189.664062 305.617188 190.863281 305.617188 190.941406 305.84375 C 191.089844 305.992188 190.714844 306.742188 190.265625 306.890625 C 189.664062 307.191406 187.191406 306.742188 186.890625 306.292969 C 186.738281 305.917969 187.414062 304.941406 187.414062 304.941406 " clip-rule="nonzero"/></clipPath><clipPath id="423ef99e39"><path d="M 185.289062 304.28125 L 190.578125 304.28125 L 190.578125 307.148438 L 185.289062 307.148438 Z M 185.289062 304.28125 " clip-rule="nonzero"/></clipPath><clipPath id="957ddd155c"><path d="M 189.441406 307.117188 C 185.238281 305.316406 185.238281 304.792969 185.390625 304.640625 C 185.539062 304.417969 186.140625 304.191406 186.363281 304.34375 C 186.589844 304.492188 186.664062 305.691406 186.441406 305.765625 C 186.289062 305.917969 185.238281 305.167969 185.316406 304.941406 C 185.316406 304.71875 185.839844 304.34375 186.289062 304.34375 C 187.039062 304.191406 189.066406 305.015625 189.816406 305.542969 C 190.191406 305.84375 190.640625 306.292969 190.566406 306.59375 C 190.488281 306.816406 189.441406 307.117188 189.441406 307.117188 " clip-rule="nonzero"/></clipPath><clipPath id="50803d48a6"><path d="M 173.34375 302.722656 L 187.589844 302.722656 L 187.589844 306.304688 L 173.34375 306.304688 Z M 173.34375 302.722656 " clip-rule="nonzero"/></clipPath><clipPath id="79036c0e4a"><path d="M 186.664062 306.292969 C 173.539062 304.265625 173.316406 303.742188 173.390625 303.515625 C 173.464844 303.292969 174.816406 303.066406 174.964844 303.292969 C 175.039062 303.441406 174.441406 304.566406 174.140625 304.566406 C 173.914062 304.640625 173.390625 304.117188 173.390625 303.890625 C 173.316406 303.59375 173.613281 303.066406 174.140625 302.917969 C 175.789062 302.242188 185.539062 303.890625 186.964844 304.792969 C 187.414062 305.015625 187.640625 305.390625 187.566406 305.617188 C 187.566406 305.917969 186.664062 306.292969 186.664062 306.292969 " clip-rule="nonzero"/></clipPath><clipPath id="2749aba69c"><path d="M 174.328125 302.730469 L 180.117188 302.730469 L 180.117188 305.695312 L 174.328125 305.695312 Z M 174.328125 302.730469 " clip-rule="nonzero"/></clipPath><clipPath id="b894a75ead"><path d="M 179.238281 305.691406 C 174.289062 303.890625 174.289062 303.441406 174.363281 303.21875 C 174.515625 302.992188 175.039062 302.765625 175.265625 302.765625 C 175.566406 302.84375 175.941406 303.515625 175.863281 303.816406 C 175.789062 304.042969 174.890625 304.34375 174.664062 304.265625 C 174.441406 304.117188 174.289062 303.59375 174.363281 303.292969 C 174.441406 303.066406 174.816406 302.84375 175.191406 302.765625 C 176.089844 302.691406 179.164062 303.742188 179.765625 304.34375 C 180.066406 304.566406 180.140625 304.941406 180.066406 305.167969 C 179.988281 305.390625 179.238281 305.691406 179.238281 305.691406 " clip-rule="nonzero"/></clipPath><clipPath id="636822a769"><path d="M 175.445312 302.621094 L 176.921875 302.621094 L 176.921875 303.839844 L 175.445312 303.839844 Z M 175.445312 302.621094 " clip-rule="nonzero"/></clipPath><clipPath id="3a8b28987e"><path d="M 176.914062 303.066406 C 176.238281 304.042969 175.640625 303.890625 175.488281 303.667969 C 175.414062 303.441406 175.488281 302.84375 175.714844 302.691406 C 175.863281 302.542969 176.691406 302.765625 176.691406 302.765625 " clip-rule="nonzero"/></clipPath><clipPath id="578e50909b"><path d="M 175.296875 302.167969 L 176.773438 302.167969 L 176.773438 303.390625 L 175.296875 303.390625 Z M 175.296875 302.167969 " clip-rule="nonzero"/></clipPath><clipPath id="d9c617e90e"><path d="M 176.765625 302.617188 C 176.089844 303.59375 175.488281 303.441406 175.339844 303.21875 C 175.265625 302.992188 175.339844 302.390625 175.566406 302.242188 C 175.714844 302.09375 176.539062 302.316406 176.539062 302.316406 " clip-rule="nonzero"/></clipPath><clipPath id="21368d7ee8"><path d="M 159.464844 300.019531 L 176.632812 300.019531 L 176.632812 305.648438 L 159.464844 305.648438 Z M 159.464844 300.019531 " clip-rule="nonzero"/></clipPath><clipPath id="cb7b03e1d4"><path d="M 174.066406 305.46875 C 159.515625 301.492188 159.363281 301.042969 159.515625 300.742188 C 159.664062 300.441406 160.714844 300.292969 161.539062 300.292969 C 163.113281 300.441406 165.515625 302.015625 167.765625 302.617188 C 170.316406 303.292969 174.890625 303.292969 176.015625 304.042969 C 176.390625 304.34375 176.691406 304.640625 176.613281 304.941406 C 176.539062 305.242188 176.164062 305.542969 175.640625 305.617188 C 173.691406 305.917969 163.414062 302.992188 162.140625 301.640625 C 161.765625 301.265625 161.691406 300.667969 161.839844 300.441406 C 161.914062 300.21875 162.589844 299.992188 162.738281 300.066406 C 163.039062 300.21875 163.191406 301.417969 162.964844 301.566406 C 162.816406 301.71875 161.765625 301.34375 161.691406 301.042969 C 161.613281 300.816406 162.066406 300.21875 162.664062 300.066406 C 164.464844 299.617188 173.164062 302.691406 175.191406 303.59375 C 175.863281 303.890625 176.316406 304.042969 176.464844 304.34375 C 176.613281 304.640625 176.613281 305.242188 176.390625 305.46875 C 175.941406 305.84375 174.589844 305.542969 173.164062 305.316406 C 170.238281 304.867188 161.464844 303.140625 159.964844 301.867188 C 159.589844 301.492188 159.363281 301.042969 159.515625 300.742188 C 159.589844 300.515625 159.816406 300.367188 160.265625 300.292969 C 161.839844 300.066406 168.589844 302.015625 171.214844 302.84375 C 172.863281 303.367188 174.515625 303.742188 174.964844 304.265625 C 175.113281 304.566406 175.191406 304.941406 175.039062 305.167969 C 174.890625 305.390625 174.066406 305.46875 174.066406 305.46875 " clip-rule="nonzero"/></clipPath><clipPath id="50daf5a4c9"><path d="M 160.828125 299.691406 L 172.863281 299.691406 L 172.863281 303.40625 L 160.828125 303.40625 Z M 160.828125 299.691406 " clip-rule="nonzero"/></clipPath><clipPath id="0a6683968b"><path d="M 161.613281 299.691406 C 172.789062 302.015625 172.714844 302.992188 172.566406 303.140625 C 172.339844 303.21875 171.214844 302.46875 171.289062 302.242188 C 171.289062 302.015625 172.640625 301.640625 172.789062 301.867188 C 172.941406 302.015625 172.640625 302.992188 172.113281 303.21875 C 170.691406 303.96875 162.738281 302.015625 161.464844 301.191406 C 161.015625 300.890625 160.789062 300.59375 160.863281 300.367188 C 160.863281 300.066406 161.613281 299.691406 161.613281 299.691406 " clip-rule="nonzero"/></clipPath><clipPath id="f3a81d498d"><path d="M 169.179688 301.109375 L 171.65625 301.109375 L 171.65625 303.238281 L 169.179688 303.238281 Z M 169.179688 301.109375 " clip-rule="nonzero"/></clipPath><clipPath id="9e620316fe"><path d="M 170.539062 303.21875 C 168.964844 301.417969 170.164062 301.417969 170.238281 301.640625 C 170.316406 301.792969 169.488281 302.765625 169.339844 302.691406 C 169.191406 302.617188 169.113281 301.417969 169.339844 301.191406 C 169.640625 300.96875 170.914062 301.492188 171.289062 301.867188 C 171.515625 302.09375 171.738281 302.542969 171.589844 302.765625 C 171.515625 303.066406 170.539062 303.21875 170.539062 303.21875 " clip-rule="nonzero"/></clipPath><clipPath id="d5fdf9b741"><path d="M 169.5625 301.308594 L 171.816406 301.308594 L 171.816406 304.144531 L 169.5625 304.144531 Z M 169.5625 301.308594 " clip-rule="nonzero"/></clipPath><clipPath id="92edcaa823"><path d="M 169.566406 302.316406 C 170.613281 301.34375 171.066406 302.242188 170.988281 302.46875 C 170.839844 302.691406 169.863281 302.765625 169.714844 302.617188 C 169.566406 302.390625 170.015625 301.417969 170.316406 301.34375 C 170.691406 301.265625 171.664062 302.242188 171.738281 302.691406 C 171.890625 303.066406 171.738281 303.59375 171.515625 303.816406 C 171.214844 304.042969 170.164062 304.117188 170.164062 304.117188 " clip-rule="nonzero"/></clipPath><clipPath id="b3ffffe0dd"><path d="M 144.511719 296 L 163.914062 296 L 163.914062 302.945312 L 144.511719 302.945312 Z M 144.511719 296 " clip-rule="nonzero"/></clipPath><clipPath id="57a7af2e99"><path d="M 145.566406 296.015625 C 156.515625 300.140625 162.363281 300.515625 163.488281 301.417969 C 163.789062 301.71875 163.941406 302.015625 163.863281 302.242188 C 163.789062 302.542969 163.113281 302.917969 162.890625 302.84375 C 162.664062 302.765625 162.289062 302.09375 162.363281 301.867188 C 162.441406 301.566406 163.191406 301.265625 163.414062 301.34375 C 163.640625 301.417969 163.941406 301.941406 163.863281 302.167969 C 163.863281 302.46875 163.488281 302.765625 162.964844 302.84375 C 161.464844 303.21875 155.914062 301.566406 152.765625 300.59375 C 149.914062 299.691406 145.640625 298.265625 144.816406 297.292969 C 144.515625 296.917969 144.515625 296.542969 144.589844 296.316406 C 144.738281 296.09375 145.566406 296.015625 145.566406 296.015625 " clip-rule="nonzero"/></clipPath><clipPath id="958612e9e2"><path d="M 145.292969 295.820312 L 159.273438 295.820312 L 159.273438 300.480469 L 145.292969 300.480469 Z M 145.292969 295.820312 " clip-rule="nonzero"/></clipPath><clipPath id="4336642c2b"><path d="M 158.316406 300.441406 C 145.414062 297.140625 145.265625 296.617188 145.414062 296.316406 C 145.488281 296.09375 146.015625 295.792969 146.316406 295.867188 C 146.539062 295.941406 147.066406 296.617188 146.988281 296.84375 C 146.914062 297.140625 146.238281 297.59375 145.941406 297.515625 C 145.640625 297.441406 145.265625 296.691406 145.339844 296.390625 C 145.414062 296.167969 145.714844 295.941406 146.238281 295.867188 C 147.890625 295.566406 157.414062 297.890625 158.765625 299.015625 C 159.140625 299.316406 159.289062 299.691406 159.214844 299.917969 C 159.140625 300.140625 158.316406 300.441406 158.316406 300.441406 " clip-rule="nonzero"/></clipPath><clipPath id="af8bd6e661"><path d="M 136.382812 293.988281 L 139.367188 293.988281 L 139.367188 296.414062 L 136.382812 296.414062 Z M 136.382812 293.988281 " clip-rule="nonzero"/></clipPath><clipPath id="60e499390a"><path d="M 138.214844 296.390625 C 136.191406 294.667969 136.414062 294.21875 136.640625 294.066406 C 136.863281 293.917969 137.464844 293.992188 137.539062 294.21875 C 137.691406 294.441406 137.316406 295.492188 137.089844 295.492188 C 136.863281 295.492188 136.265625 294.441406 136.414062 294.292969 C 136.566406 294.066406 138.664062 294.667969 139.113281 295.191406 C 139.339844 295.492188 139.414062 296.09375 139.265625 296.316406 C 139.113281 296.46875 138.214844 296.390625 138.214844 296.390625 " clip-rule="nonzero"/></clipPath><clipPath id="cfe0565bc8"><path d="M 136.710938 294.246094 L 139.386719 294.246094 L 139.386719 296.121094 L 136.710938 296.121094 Z M 136.710938 294.246094 " clip-rule="nonzero"/></clipPath><clipPath id="3f413bf9e1"><path d="M 138.664062 296.09375 C 136.714844 295.191406 137.316406 294.292969 137.464844 294.292969 C 137.691406 294.292969 138.140625 295.34375 138.066406 295.566406 C 137.914062 295.71875 136.941406 295.566406 136.789062 295.417969 C 136.640625 295.191406 136.863281 294.515625 137.164062 294.367188 C 137.539062 294.140625 138.664062 294.367188 139.039062 294.667969 C 139.265625 294.890625 139.414062 295.34375 139.339844 295.640625 C 139.339844 295.867188 138.664062 296.09375 138.664062 296.09375 " clip-rule="nonzero"/></clipPath><clipPath id="08196a8c0e"><path d="M 136.238281 293.214844 L 139.375 293.214844 L 139.375 295.785156 L 136.238281 295.785156 Z M 136.238281 293.214844 " clip-rule="nonzero"/></clipPath><clipPath id="48997136e9"><path d="M 138.140625 295.71875 C 136.265625 294.140625 136.265625 293.617188 136.414062 293.46875 C 136.640625 293.316406 137.765625 293.691406 137.765625 293.84375 C 137.839844 294.066406 136.863281 294.742188 136.640625 294.667969 C 136.414062 294.59375 136.191406 293.992188 136.265625 293.765625 C 136.339844 293.542969 136.714844 293.242188 137.015625 293.242188 C 137.539062 293.167969 138.890625 294.140625 139.191406 294.667969 C 139.414062 294.96875 139.414062 295.492188 139.265625 295.640625 C 139.113281 295.867188 138.140625 295.71875 138.140625 295.71875 " clip-rule="nonzero"/></clipPath><clipPath id="93a5d4f8fa"><path d="M 134.828125 293.179688 L 138.167969 293.179688 L 138.167969 295.820312 L 134.828125 295.820312 Z M 134.828125 293.179688 " clip-rule="nonzero"/></clipPath><clipPath id="33381da90f"><path d="M 135.964844 293.242188 C 138.289062 295.117188 138.066406 295.566406 137.839844 295.71875 C 137.613281 295.867188 137.015625 295.792969 136.941406 295.566406 C 136.789062 295.417969 137.164062 294.292969 137.390625 294.292969 C 137.613281 294.21875 138.214844 295.34375 138.140625 295.492188 C 137.914062 295.71875 135.441406 294.96875 135.066406 294.441406 C 134.839844 294.140625 134.765625 293.542969 134.988281 293.316406 C 135.140625 293.09375 135.964844 293.242188 135.964844 293.242188 " clip-rule="nonzero"/></clipPath><clipPath id="b0007bca15"><path d="M 136.25 293.152344 L 143.785156 293.152344 L 143.785156 297.273438 L 136.25 297.273438 Z M 136.25 293.152344 " clip-rule="nonzero"/></clipPath><clipPath id="64754f0f3e"><path d="M 137.390625 293.167969 C 143.839844 296.46875 143.015625 297.21875 142.714844 297.140625 C 142.488281 297.140625 142.191406 296.015625 142.414062 295.867188 C 142.566406 295.640625 143.691406 295.792969 143.765625 296.015625 C 143.839844 296.242188 143.316406 297.066406 142.863281 297.21875 C 141.890625 297.441406 139.113281 295.941406 137.988281 295.265625 C 137.238281 294.890625 136.339844 294.515625 136.265625 294.140625 C 136.265625 293.84375 137.390625 293.167969 137.390625 293.167969 " clip-rule="nonzero"/></clipPath><clipPath id="c8d37fec5f"><path d="M 135.464844 292.9375 L 150.777344 292.9375 L 150.777344 297.855469 L 135.464844 297.855469 Z M 135.464844 292.9375 " clip-rule="nonzero"/></clipPath><clipPath id="e3e1067e8c"><path d="M 136.265625 292.941406 C 150.738281 296.542969 150.816406 296.917969 150.738281 297.21875 C 150.664062 297.441406 150.214844 297.890625 149.914062 297.816406 C 149.691406 297.816406 149.015625 297.21875 149.089844 296.992188 C 149.089844 296.691406 149.914062 296.09375 150.214844 296.167969 C 150.515625 296.242188 150.816406 296.84375 150.738281 297.066406 C 150.738281 297.367188 150.363281 297.742188 149.765625 297.816406 C 147.890625 298.191406 137.613281 295.492188 136.113281 294.441406 C 135.664062 294.140625 135.441406 293.84375 135.515625 293.617188 C 135.515625 293.316406 136.265625 292.941406 136.265625 292.941406 " clip-rule="nonzero"/></clipPath><clipPath id="943f2ae763"><path d="M 187 195.132812 L 283.277344 195.132812 L 283.277344 223.144531 L 187 223.144531 Z M 187 195.132812 " clip-rule="nonzero"/></clipPath><clipPath id="49f6f3833f"><path d="M 196.273438 196.726562 C 203.851562 202.425781 217.199219 204.675781 225.601562 206.398438 C 233.398438 207.976562 240.148438 209.101562 248.324219 210.074219 C 257.851562 211.125 274.800781 210.375 279.523438 212.175781 C 281.101562 212.773438 281.699219 213.449219 282.300781 214.351562 C 282.898438 215.324219 283.199219 216.824219 283.199219 217.800781 C 283.199219 218.476562 283.050781 218.925781 282.75 219.601562 C 282.375 220.425781 281.398438 221.699219 280.425781 222.226562 C 279.449219 222.824219 277.949219 222.976562 276.976562 222.976562 C 276.300781 222.898438 275.851562 222.75 275.25 222.449219 C 274.425781 221.925781 273.226562 220.800781 272.699219 219.976562 C 272.324219 219.375 272.175781 218.925781 272.175781 218.25 C 272.101562 217.273438 272.398438 215.625 272.773438 214.726562 C 273.074219 214.125 273.375 213.75 273.898438 213.300781 C 274.648438 212.773438 276.148438 212.023438 277.125 211.875 C 277.800781 211.800781 278.25 211.800781 278.925781 212.023438 C 279.824219 212.324219 281.25 213.226562 281.925781 213.898438 C 282.375 214.351562 282.675781 214.800781 282.824219 215.476562 C 283.125 216.375 283.273438 217.949219 282.976562 219 C 282.675781 220.050781 281.851562 221.25 280.949219 221.925781 C 280.050781 222.601562 279.300781 222.75 277.574219 222.976562 C 272.476562 223.574219 255.898438 221.925781 246.75 220.875 C 239.398438 220.050781 234.074219 219.074219 226.949219 217.726562 C 218.550781 216.148438 205.800781 214.125 199.574219 211.800781 C 196.050781 210.523438 193.949219 209.175781 191.851562 207.601562 C 190.199219 206.324219 188.550781 204.675781 187.800781 203.324219 C 187.273438 202.425781 187.050781 201.675781 187.050781 200.851562 C 186.976562 200.023438 187.125 199.050781 187.5 198.300781 C 187.875 197.550781 188.476562 196.800781 189.074219 196.273438 C 189.75 195.75 190.648438 195.375 191.476562 195.226562 C 192.300781 195.074219 193.273438 195.148438 194.023438 195.375 C 194.851562 195.601562 196.273438 196.726562 196.273438 196.726562 " clip-rule="nonzero"/></clipPath></defs><g clip-path="url(#6e5f3f11f0)"><g clip-path="url(#5574e9ef3e)"><g clip-path="url(#c9d1fdde29)"><g clip-path="url(#20bfc04a32)"><path fill="#dd9b45" d="M 348.949219 91.507812 C 347.667969 91.648438 346.449219 91.445312 345.285156 90.894531 C 345.285156 90.894531 329.5625 84.3125 327.550781 84.464844 C 326.511719 84.546875 328.90625 73.785156 331.441406 63.453125 C 333.785156 53.917969 336.246094 44.734375 336.246094 44.734375 L 356.371094 36.382812 C 356.371094 36.382812 366.855469 39.023438 362.109375 68.28125 C 359.035156 87.21875 352.886719 91.109375 348.949219 91.507812 Z M 348.949219 91.507812 " fill-opacity="1" fill-rule="nonzero"/></g></g></g></g><g clip-path="url(#522c840277)"><g clip-path="url(#2f04112e5c)"><g clip-path="url(#b4d628dd49)"><g clip-path="url(#3c6f219071)"><path fill="#f4c26d" d="M 348.949219 91.507812 C 347.667969 91.648438 346.449219 91.445312 345.285156 90.894531 C 345.285156 90.894531 329.5625 84.3125 327.550781 84.464844 C 326.511719 84.546875 328.90625 73.785156 331.441406 63.453125 L 351.335938 64.246094 C 351.335938 64.246094 342.980469 82.3125 348.949219 91.507812 Z M 348.949219 91.507812 " fill-opacity="1" fill-rule="nonzero"/></g></g></g></g><g clip-path="url(#86748ad91d)"><g clip-path="url(#7bb2a9163e)"><g clip-path="url(#a2a79c548d)"><g clip-path="url(#2f362c9c73)"><path fill="#ffda8f" d="M 300.5625 320.472656 C 298.632812 323.480469 293.785156 323.6875 290.183594 323.359375 C 289.851562 323.332031 289.542969 323.398438 289.253906 323.558594 C 288.96875 323.71875 288.75 323.949219 288.601562 324.242188 C 288.457031 324.539062 288.40625 324.851562 288.449219 325.175781 C 288.496094 325.503906 288.628906 325.789062 288.851562 326.035156 L 291.316406 328.753906 C 291.714844 329.195312 292.050781 329.683594 292.320312 330.214844 C 292.589844 330.746094 292.785156 331.304688 292.902344 331.890625 C 293.019531 332.476562 293.058594 333.066406 293.019531 333.660156 C 292.976562 334.257812 292.855469 334.835938 292.65625 335.398438 C 290.234375 342.269531 283.90625 356.636719 271.492188 363.746094 C 267.269531 366.125 262.828125 367.984375 258.167969 369.324219 C 253.507812 370.660156 248.753906 371.441406 243.90625 371.660156 C 238.992188 371.914062 234.113281 371.625 229.261719 370.796875 C 224.410156 369.96875 219.707031 368.621094 215.15625 366.75 C 196.890625 359.203125 114.082031 326.066406 102.980469 323.269531 C 91.878906 320.472656 20.855469 301.601562 16.777344 299.59375 C 12.695312 297.585938 11.957031 271.855469 13.570312 271.9375 C 15.183594 272.015625 17.507812 271.945312 21.445312 270.640625 C 25.378906 269.335938 14.046875 266.15625 16.652344 260.921875 C 19.257812 255.683594 33.800781 239.703125 38.886719 244.230469 C 43.972656 248.757812 57.628906 258.453125 57.628906 258.453125 C 57.628906 258.453125 70.832031 243.765625 72.984375 242.992188 C 74.371094 242.503906 77.640625 242.074219 80.167969 241.410156 C 81.570312 241.035156 82.746094 240.589844 83.242188 240.007812 C 84.632812 238.394531 78.230469 237.765625 81.632812 233.386719 C 81.921875 233.023438 82.160156 232.632812 82.351562 232.210938 C 84.253906 228.136719 80.464844 223.578125 81.808594 217.054688 C 83.285156 209.898438 90.855469 144.671875 90.1875 125.183594 C 89.523438 105.695312 98.5625 42.539062 102.046875 37.816406 C 105.527344 33.089844 111.839844 40.613281 115 39.769531 C 118.164062 38.929688 108.617188 26.046875 110.246094 23.511719 C 111.875 20.976562 116.207031 3.726562 140.71875 11.867188 C 165.230469 20.003906 277.789062 34.605469 300.773438 34.492188 C 323.753906 34.382812 356.371094 36.382812 356.371094 36.382812 C 356.371094 36.382812 342.25 41.667969 334.585938 64.292969 C 327.605469 84.828125 324.441406 125.839844 322.351562 134.972656 C 322.265625 135.589844 322.0625 136.167969 321.753906 136.707031 C 320.902344 137.695312 317.742188 139.746094 314.347656 141.773438 C 313.097656 142.527344 311.816406 143.277344 310.601562 143.972656 C 310.140625 144.238281 309.796875 144.613281 309.566406 145.09375 C 309.335938 145.574219 309.265625 146.078125 309.347656 146.601562 C 309.429688 147.128906 309.65625 147.585938 310.023438 147.972656 C 310.390625 148.359375 310.832031 148.609375 311.355469 148.722656 C 315.308594 149.554688 319.425781 150.789062 319.304688 152.300781 C 319.070312 155.1875 314.667969 160.953125 315.699219 166.617188 C 316.726562 172.28125 320.1875 181.988281 318.441406 188.917969 C 316.699219 195.847656 320.089844 246.808594 317.195312 254.421875 C 316.964844 255.023438 316.683594 255.597656 316.351562 256.148438 C 314.21875 259.671875 310.457031 261.292969 307.898438 262.453125 C 306.121094 263.261719 304.917969 263.84375 305.269531 264.671875 C 306.1875 266.867188 313.011719 271.039062 312.648438 278.316406 C 312.289062 285.59375 303.804688 315.398438 300.5625 320.472656 Z M 300.5625 320.472656 " fill-opacity="1" fill-rule="nonzero"/></g></g></g></g><g clip-path="url(#adc9d08d07)"><g clip-path="url(#24d5f9c7bc)"><g clip-path="url(#5fbf196cf1)"><g clip-path="url(#da822c22f2)"><path fill="#f4c26d" d="M 238.945312 346.378906 C 238.945312 346.378906 233.160156 365.617188 243.878906 371.652344 C 238.964844 371.90625 234.082031 371.617188 229.230469 370.789062 C 224.382812 369.960938 219.679688 368.613281 215.128906 366.742188 C 196.859375 359.195312 114.054688 326.058594 102.953125 323.261719 C 91.851562 320.464844 20.855469 301.601562 16.777344 299.59375 C 12.695312 297.585938 11.957031 271.855469 13.570312 271.9375 C 15.183594 272.015625 17.507812 271.945312 21.445312 270.640625 C 25.378906 269.335938 14.046875 266.15625 16.652344 260.921875 C 19.257812 255.683594 33.800781 239.703125 38.886719 244.230469 C 43.972656 248.757812 57.628906 258.453125 57.628906 258.453125 C 57.628906 258.453125 93.125 282.777344 143.476562 295.132812 C 193.824219 307.488281 262.589844 316.3125 264.75 318.148438 C 266.914062 319.980469 263.425781 337.789062 252.132812 351.320312 Z M 238.945312 346.378906 " fill-opacity="1" fill-rule="nonzero"/></g></g></g></g><g clip-path="url(#19b7b943a7)"><g clip-path="url(#fe4b845e17)"><g clip-path="url(#bf3862a0cb)"><g clip-path="url(#263baa29b9)"><path fill="#dd9b45" d="M 252.136719 351.339844 L 238.957031 346.382812 C 238.957031 346.382812 247.632812 318.445312 264.765625 318.167969 C 266.898438 320.019531 263.390625 337.800781 252.136719 351.339844 Z M 252.136719 351.339844 " fill-opacity="1" fill-rule="nonzero"/></g></g></g></g><g clip-path="url(#105d58e6ab)"><g clip-path="url(#c85b6d8fac)"><g clip-path="url(#53af2e32e0)"><g clip-path="url(#c9152166ef)"><path fill="#f4c26d" d="M 83.253906 240.035156 C 84.640625 238.421875 78.242188 237.792969 81.644531 233.414062 C 81.929688 233.050781 82.171875 232.660156 82.363281 232.238281 C 100.453125 238.46875 129.652344 248.234375 149.417969 253.429688 C 149.417969 253.429688 109.199219 247.460938 80.207031 241.417969 C 81.582031 241.0625 82.757812 240.617188 83.253906 240.035156 Z M 83.253906 240.035156 " fill-opacity="1" fill-rule="nonzero"/></g></g></g></g><g clip-path="url(#22584c762a)"><g clip-path="url(#44158f40f9)"><g clip-path="url(#c6bc2c479f)"><g clip-path="url(#0a0b70248e)"><path fill="#f4c26d" d="M 316.351562 256.148438 C 314.21875 259.671875 310.457031 261.292969 307.898438 262.453125 C 290.46875 256.570312 268.410156 249.414062 252.507812 245.238281 C 252.488281 245.246094 288.011719 250.507812 316.351562 256.148438 Z M 316.351562 256.148438 " fill-opacity="1" fill-rule="nonzero"/></g></g></g></g><g clip-path="url(#4bc3081254)"><g clip-path="url(#bd5472c67f)"><g clip-path="url(#b9d10dd502)"><g clip-path="url(#2fa3bf1e32)"><path fill="#f4c26d" d="M 321.753906 136.707031 C 320.902344 137.695312 317.742188 139.746094 314.347656 141.773438 C 296.78125 137.726562 275.261719 133.035156 259.652344 130.53125 C 259.652344 130.53125 293.945312 132.234375 322.351562 134.972656 C 322.265625 135.589844 322.0625 136.167969 321.753906 136.707031 Z M 321.753906 136.707031 " fill-opacity="1" fill-rule="nonzero"/></g></g></g></g><g clip-path="url(#9f59beffba)"><g clip-path="url(#d767aed2a0)"><g clip-path="url(#e0f70a3292)"><g clip-path="url(#199b5753de)"><path fill="#f4c26d" d="M 118.503906 70.125 C 131.492188 70.382812 144.386719 71.824219 157.226562 73.648438 C 170.050781 75.570312 182.835938 77.917969 195.292969 81.609375 C 169.511719 79 143.875 75.425781 118.511719 70.101562 Z M 118.503906 70.125 " fill-opacity="1" fill-rule="nonzero"/></g></g></g></g><g clip-path="url(#5ec8a55f20)"><g clip-path="url(#cc979e98a0)"><g clip-path="url(#53ae8a667b)"><g clip-path="url(#0c8de2598b)"><path fill="#f4c26d" d="M 195.8125 204.53125 C 208.800781 204.789062 221.691406 206.230469 234.535156 208.054688 C 247.359375 209.976562 260.140625 212.328125 272.597656 216.015625 C 246.820312 213.40625 221.183594 209.835938 195.816406 204.507812 Z M 195.8125 204.53125 " fill-opacity="1" fill-rule="nonzero"/></g></g></g></g><g clip-path="url(#2811e35157)"><g clip-path="url(#211193e00b)"><path fill="#ffda8f" d="M 117.039062 64.429688 L 206.402344 64.429688 L 206.402344 90.605469 L 117.039062 90.605469 Z M 117.039062 64.429688 " fill-opacity="1" fill-rule="nonzero"/></g></g><path fill="#401e05" d="M 154.160156 82.839844 L 175.789062 85.03125 L 175.410156 88.761719 L 153.785156 86.570312 Z M 154.160156 82.839844 " fill-opacity="1" fill-rule="nonzero"/><g fill="#401e05" fill-opacity="1"><g transform="translate(154.38857, 80.600595)"><g><path d="M 6.953125 1.3125 C 5.859375 1.207031 5.425781 0.046875 5.65625 -2.171875 C 5.789062 -3.566406 5.691406 -8.640625 5.359375 -17.390625 C 5.023438 -26.140625 4.742188 -30.925781 4.515625 -31.75 C 4.941406 -32.40625 5.476562 -32.703125 6.125 -32.640625 C 6.800781 -32.566406 7.273438 -30.988281 7.546875 -27.90625 C 7.785156 -24.625 7.878906 -20.894531 7.828125 -16.71875 L 7.78125 -13.140625 C 7.757812 -11.140625 7.765625 -10.125 7.796875 -10.09375 L 8.609375 -13.71875 L 9.09375 -15.984375 C 9.8125 -19.265625 10.296875 -21.582031 10.546875 -22.9375 C 10.878906 -24.738281 11.078125 -25.972656 11.140625 -26.640625 L 11.234375 -27.484375 C 11.265625 -27.804688 11.410156 -28.097656 11.671875 -28.359375 C 11.929688 -28.617188 12.207031 -28.734375 12.5 -28.703125 C 13.539062 -28.597656 14.019531 -28.113281 13.9375 -27.25 L 13.875 -26.59375 C 13.695312 -24.925781 13.679688 -23.117188 13.828125 -21.171875 C 13.972656 -19.234375 14.234375 -16.898438 14.609375 -14.171875 C 14.867188 -12.585938 15.085938 -10.671875 15.265625 -8.421875 C 15.441406 -9.367188 15.957031 -11.664062 16.8125 -15.3125 C 17.625 -18.664062 18.257812 -21.515625 18.71875 -23.859375 C 19.175781 -26.210938 19.515625 -28.425781 19.734375 -30.5 C 19.796875 -31.175781 19.945312 -31.640625 20.1875 -31.890625 C 20.425781 -32.148438 20.851562 -32.25 21.46875 -32.1875 C 21.820312 -32.15625 22.125 -32.015625 22.375 -31.765625 C 22.632812 -31.515625 22.75 -31.210938 22.71875 -30.859375 C 22.6875 -30.535156 22.503906 -30.21875 22.171875 -29.90625 C 21.960938 -27.800781 21.550781 -25.351562 20.9375 -22.5625 C 20.332031 -19.78125 19.664062 -17.148438 18.9375 -14.671875 C 18.226562 -12.234375 17.566406 -9.609375 16.953125 -6.796875 C 16.347656 -3.992188 15.9375 -1.507812 15.71875 0.65625 C 15.664062 1.125 15.515625 1.484375 15.265625 1.734375 C 15.023438 1.992188 14.6875 2.101562 14.25 2.0625 C 13.925781 2.03125 13.613281 1.390625 13.3125 0.140625 C 12.914062 -1.578125 12.554688 -4.953125 12.234375 -9.984375 L 11.984375 -15.203125 L 11.875 -18.09375 C 11.226562 -15.46875 10.722656 -13.351562 10.359375 -11.75 C 10.003906 -10.15625 9.628906 -8.257812 9.234375 -6.0625 C 8.804688 -3.945312 8.488281 -1.851562 8.28125 0.21875 C 8.25 0.507812 8.097656 0.773438 7.828125 1.015625 C 7.566406 1.253906 7.273438 1.351562 6.953125 1.3125 Z M 6.953125 1.3125 "/></g></g></g><path fill="#401e05" d="M 175.269531 85.011719 L 190.542969 86.984375 L 190.0625 90.707031 L 174.789062 88.734375 Z M 175.269531 85.011719 " fill-opacity="1" fill-rule="nonzero"/><g fill="#401e05" fill-opacity="1"><g transform="translate(175.559161, 82.781989)"><g><path d="M 11.265625 1.453125 C 10.785156 1.390625 10.445312 1.253906 10.25 1.046875 C 10.0625 0.847656 9.992188 0.550781 10.046875 0.15625 L 10.796875 -5.5625 C 10.453125 -5.875 9.769531 -6.203125 8.75 -6.546875 C 7.726562 -6.890625 6.753906 -7.148438 5.828125 -7.328125 C 5.429688 -6.742188 5.101562 -6.03125 4.84375 -5.1875 L 4.546875 -4.34375 C 4.503906 -4.144531 4.359375 -3.707031 4.109375 -3.03125 C 3.867188 -2.351562 3.628906 -1.769531 3.390625 -1.28125 C 3.160156 -0.789062 2.941406 -0.410156 2.734375 -0.140625 C 1.617188 -0.285156 1.015625 -0.65625 0.921875 -1.25 C 1.296875 -1.675781 1.832031 -3 2.53125 -5.21875 L 5 -13.015625 C 6.132812 -16.710938 7.140625 -19.867188 8.015625 -22.484375 C 8.898438 -25.097656 9.765625 -27.257812 10.609375 -28.96875 C 11.546875 -30.894531 12.316406 -31.816406 12.921875 -31.734375 C 13.546875 -31.660156 14 -31.488281 14.28125 -31.21875 C 14.125 -30.050781 14.035156 -27.203125 14.015625 -22.671875 C 14.035156 -18.242188 13.941406 -15.226562 13.734375 -13.625 C 13.535156 -12.082031 13.40625 -9.847656 13.34375 -6.921875 C 13.257812 -3.953125 13.101562 -1.59375 12.875 0.15625 C 12.75 1.144531 12.210938 1.578125 11.265625 1.453125 Z M 10.1875 -8.21875 C 10.425781 -8.1875 10.726562 -8.195312 11.09375 -8.25 C 11.175781 -9.539062 11.234375 -11.140625 11.265625 -13.046875 C 11.441406 -19.703125 11.628906 -23.773438 11.828125 -25.265625 L 11.875 -25.609375 C 11.539062 -25.359375 10.96875 -24.097656 10.15625 -21.828125 C 9.351562 -19.554688 8.554688 -17.109375 7.765625 -14.484375 C 6.984375 -11.859375 6.519531 -10.113281 6.375 -9.25 C 7.550781 -8.738281 8.820312 -8.394531 10.1875 -8.21875 Z M 10.1875 -8.21875 "/></g></g></g><path fill="#401e05" d="M 190.085938 86.90625 L 208.003906 89.671875 L 207.429688 93.378906 L 189.515625 90.609375 Z M 190.085938 86.90625 " fill-opacity="1" fill-rule="nonzero"/><g fill="#401e05" fill-opacity="1"><g transform="translate(190.430444, 84.68073)"><g><path d="M 13.265625 2.71875 C 12.679688 2.625 11.953125 -0.546875 11.078125 -6.796875 C 10.117188 -14.097656 9.359375 -20.785156 8.796875 -26.859375 L 6.59375 -12.609375 C 6.394531 -11.378906 6.179688 -9.289062 5.953125 -6.34375 C 5.671875 -3.113281 5.457031 -1.035156 5.3125 -0.109375 C 5.269531 0.140625 5.078125 0.335938 4.734375 0.484375 C 4.390625 0.628906 4.015625 0.671875 3.609375 0.609375 C 3.003906 0.515625 2.734375 0.234375 2.796875 -0.234375 L 3.078125 -1.5 C 3.285156 -2.40625 3.410156 -3.003906 3.453125 -3.296875 C 3.691406 -4.828125 3.976562 -7.273438 4.3125 -10.640625 C 4.664062 -14.066406 4.894531 -16.140625 5 -16.859375 L 5.859375 -22.4375 C 6.003906 -23.332031 6.257812 -24.65625 6.625 -26.40625 C 6.976562 -27.925781 7.242188 -29.253906 7.421875 -30.390625 L 7.453125 -30.640625 C 7.671875 -32.085938 8.097656 -32.757812 8.734375 -32.65625 C 9.109375 -32.601562 9.492188 -31.894531 9.890625 -30.53125 C 10.523438 -28.300781 11.160156 -24.375 11.796875 -18.75 C 12.148438 -15.488281 12.515625 -11.304688 12.890625 -6.203125 C 12.878906 -6.316406 12.957031 -5.28125 13.125 -3.09375 L 13.140625 -2.859375 C 13.578125 -5.671875 13.992188 -8.195312 14.390625 -10.4375 L 15.640625 -17.984375 L 17.625 -30.84375 C 17.851562 -31.550781 18.375 -31.84375 19.1875 -31.71875 C 19.976562 -31.59375 20.285156 -30.96875 20.109375 -29.84375 L 20.078125 -29.578125 C 19.835938 -29.253906 19.679688 -28.847656 19.609375 -28.359375 C 19.335938 -26.597656 18.882812 -23.9375 18.25 -20.375 C 17.601562 -16.800781 17.140625 -14.113281 16.859375 -12.3125 L 14.8125 0.953125 C 14.738281 1.410156 14.546875 1.832031 14.234375 2.21875 C 13.921875 2.601562 13.597656 2.769531 13.265625 2.71875 Z M 13.265625 2.71875 "/></g></g></g><path fill="#401e05" d="M 207.589844 89.640625 L 218.945312 91.652344 L 218.289062 95.34375 L 206.9375 93.332031 Z M 207.589844 89.640625 " fill-opacity="1" fill-rule="nonzero"/><g fill="#401e05" fill-opacity="1"><g transform="translate(207.982668, 87.425738)"><g><path d="M 5.796875 1.34375 C 5.367188 1.269531 5.066406 1 4.890625 0.53125 C 4.722656 0.0703125 4.691406 -0.457031 4.796875 -1.0625 C 4.960938 -2.019531 5.222656 -3.1875 5.578125 -4.5625 L 5.875 -5.65625 L 6.375 -7.9375 C 6.550781 -8.945312 6.847656 -11.21875 7.265625 -14.75 C 7.679688 -18.28125 7.976562 -20.550781 8.15625 -21.5625 C 8.164062 -21.65625 8.203125 -21.820312 8.265625 -22.0625 C 8.328125 -22.3125 8.40625 -22.691406 8.5 -23.203125 C 8.625 -23.773438 8.765625 -24.476562 8.921875 -25.3125 C 9.296875 -27.425781 9.382812 -28.796875 9.1875 -29.421875 C 9.007812 -29.453125 8.625 -29.476562 8.03125 -29.5 L 6.8125 -29.625 C 6.4375 -29.6875 6.125 -29.851562 5.875 -30.125 C 5.625 -30.394531 5.53125 -30.703125 5.59375 -31.046875 C 5.65625 -31.398438 6.050781 -31.640625 6.78125 -31.765625 C 7.851562 -31.941406 9.617188 -31.882812 12.078125 -31.59375 C 13.066406 -31.476562 13.664062 -31.40625 13.875 -31.375 C 14.21875 -31.3125 14.515625 -31.140625 14.765625 -30.859375 C 15.015625 -30.578125 15.109375 -30.265625 15.046875 -29.921875 C 14.984375 -29.566406 14.804688 -29.300781 14.515625 -29.125 C 14.234375 -28.957031 13.90625 -28.910156 13.53125 -28.984375 L 12.765625 -29.15625 C 12.535156 -29.21875 12.273438 -29.273438 11.984375 -29.328125 L 11.5625 -29.40625 C 11.414062 -27.414062 11.203125 -25.625 10.921875 -24.03125 L 10.390625 -21.265625 C 10.210938 -20.429688 10.03125 -19.492188 9.84375 -18.453125 C 9.59375 -17.078125 9.351562 -15.40625 9.125 -13.4375 C 8.84375 -11.007812 8.617188 -9.332031 8.453125 -8.40625 C 8.253906 -7.3125 8.085938 -6.003906 7.953125 -4.484375 C 7.796875 -2.929688 7.625 -1.617188 7.4375 -0.546875 C 7.1875 0.867188 6.640625 1.5 5.796875 1.34375 Z M 5.796875 1.34375 "/></g></g></g><path fill="#401e05" d="M 218.617188 91.589844 L 230.625 93.933594 L 229.90625 97.613281 L 217.898438 95.269531 Z M 218.617188 91.589844 " fill-opacity="1" fill-rule="nonzero"/><g fill="#401e05" fill-opacity="1"><g transform="translate(219.049719, 89.380227)"><g><path d="M 5 1.25 C 4.457031 1.144531 4 0.976562 3.625 0.75 C 3.15625 0.507812 2.988281 0.0546875 3.125 -0.609375 L 8.015625 -25.6875 C 8.109375 -26.175781 8.171875 -26.929688 8.203125 -27.953125 C 8.171875 -28.878906 8.207031 -29.628906 8.3125 -30.203125 L 8.34375 -30.34375 C 8.988281 -31.050781 9.445312 -31.492188 9.71875 -31.671875 C 10.125 -31.597656 10.671875 -31.550781 11.359375 -31.53125 C 11.992188 -31.53125 12.539062 -31.484375 13 -31.390625 C 13.457031 -31.304688 13.875 -31.082031 14.25 -30.71875 C 14.625 -30.363281 14.78125 -30.003906 14.71875 -29.640625 C 14.539062 -28.773438 13.789062 -28.46875 12.46875 -28.71875 L 11.859375 -28.84375 C 11.703125 -28.90625 11.503906 -28.960938 11.265625 -29.015625 C 11.015625 -29.054688 10.851562 -29.066406 10.78125 -29.046875 C 10.59375 -28.054688 10.421875 -26.863281 10.265625 -25.46875 L 10.125 -24.234375 L 9.75 -21.84375 C 9.644531 -21.300781 9.4375 -20.476562 9.125 -19.375 L 8.5625 -16.96875 L 9.1875 -16.984375 C 9.789062 -17.054688 10.28125 -17.050781 10.65625 -16.96875 C 10.976562 -16.90625 11.242188 -16.726562 11.453125 -16.4375 C 11.660156 -16.144531 11.734375 -15.835938 11.671875 -15.515625 C 11.609375 -15.171875 11.441406 -14.882812 11.171875 -14.65625 C 10.910156 -14.425781 10.617188 -14.34375 10.296875 -14.40625 L 9.78125 -14.53125 L 9.234375 -14.640625 C 8.796875 -14.722656 8.472656 -14.6875 8.265625 -14.53125 L 5.671875 -1.1875 L 8.09375 -0.84375 C 9.738281 -0.519531 10.488281 0.0078125 10.34375 0.75 L 10.3125 0.921875 C 10.070312 1.242188 9.695312 1.46875 9.1875 1.59375 C 8.6875 1.71875 8.21875 1.769531 7.78125 1.75 L 6.34375 1.515625 Z M 5 1.25 "/></g></g></g><path fill="#401e05" d="M 230.234375 93.828125 L 246.53125 97.375 L 245.734375 101.039062 L 229.4375 97.492188 Z M 230.234375 93.828125 " fill-opacity="1" fill-rule="nonzero"/><g fill="#401e05" fill-opacity="1"><g transform="translate(230.714864, 91.630956)"><g><path d="M 4.765625 1.140625 C 4.179688 1.003906 3.710938 0.757812 3.359375 0.40625 C 3.003906 0.0625 2.875 -0.335938 2.96875 -0.796875 C 3.738281 -1.296875 4.421875 -2.90625 5.015625 -5.625 C 5.367188 -7.257812 5.753906 -9.664062 6.171875 -12.84375 C 6.535156 -15.882812 6.90625 -18.265625 7.28125 -19.984375 L 7.890625 -22.34375 C 8.054688 -23.007812 8.238281 -23.789062 8.4375 -24.6875 C 8.601562 -25.476562 8.675781 -26.523438 8.65625 -27.828125 C 8.601562 -29.191406 8.632812 -30.128906 8.75 -30.640625 C 8.96875 -31.648438 10.175781 -31.914062 12.375 -31.4375 L 13.03125 -31.296875 C 14.582031 -30.960938 15.820312 -30.195312 16.75 -29 C 17.5 -28 18.023438 -26.671875 18.328125 -25.015625 C 18.535156 -23.890625 18.597656 -22.375 18.515625 -20.46875 C 18.328125 -18.832031 18.132812 -17.554688 17.9375 -16.640625 L 17.640625 -15.265625 L 17.203125 -13.25 C 17.117188 -13.132812 17.066406 -13.019531 17.046875 -12.90625 C 16.992188 -12.6875 16.972656 -12.507812 16.984375 -12.375 C 16.972656 -12.257812 16.953125 -12.117188 16.921875 -11.953125 C 16.722656 -11.035156 16.347656 -9.960938 15.796875 -8.734375 C 15.242188 -7.515625 14.566406 -6.304688 13.765625 -5.109375 C 11.796875 -2.234375 9.859375 -0.3125 7.953125 0.65625 C 6.859375 1.195312 5.796875 1.359375 4.765625 1.140625 Z M 6.203125 -1.171875 C 7.398438 -1.597656 8.535156 -2.34375 9.609375 -3.40625 C 10.679688 -4.476562 11.601562 -5.734375 12.375 -7.171875 C 13.757812 -9.816406 14.765625 -12.566406 15.390625 -15.421875 C 15.722656 -16.972656 15.945312 -18.703125 16.0625 -20.609375 C 16.132812 -22.453125 15.804688 -24.195312 15.078125 -25.84375 C 14.742188 -26.644531 14.242188 -27.320312 13.578125 -27.875 C 12.921875 -28.425781 12.117188 -28.800781 11.171875 -29 L 11.171875 -28.953125 C 10.609375 -26.367188 9.929688 -22.4375 9.140625 -17.15625 C 8.347656 -11.882812 7.660156 -7.914062 7.078125 -5.25 Z M 6.203125 -1.171875 "/></g></g></g><g fill="#401e05" fill-opacity="1"><g transform="translate(117.964106, 283.534193)"><g><path d="M 1.53125 1.0625 C 1.238281 0.882812 1.535156 0.0390625 2.421875 -1.46875 L 4.0625 -4.171875 C 4.550781 -4.960938 5.09375 -5.859375 5.6875 -6.859375 C 5.90625 -7.222656 6.207031 -7.8125 6.59375 -8.625 C 7.03125 -9.488281 7.300781 -10.015625 7.40625 -10.203125 C 7.5 -10.347656 7.644531 -10.441406 7.84375 -10.484375 C 8.039062 -10.523438 8.207031 -10.503906 8.34375 -10.421875 C 8.75 -10.179688 9.082031 -9.863281 9.34375 -9.46875 C 9.601562 -9.070312 9.789062 -8.628906 9.90625 -8.140625 C 10.09375 -7.078125 10.035156 -6.070312 9.734375 -5.125 C 9.585938 -4.632812 9.394531 -4.1875 9.15625 -3.78125 C 9.0625 -3.625 8.972656 -3.488281 8.890625 -3.375 L 8.59375 -2.90625 L 8.03125 -1.953125 C 7.601562 -1.222656 7.242188 -0.660156 6.953125 -0.265625 C 6.535156 0.265625 6.097656 0.695312 5.640625 1.03125 C 5.128906 1.375 4.539062 1.601562 3.875 1.71875 C 3.570312 1.78125 3.207031 1.800781 2.78125 1.78125 Z M 2.828125 0.609375 C 3.054688 0.742188 3.300781 0.8125 3.5625 0.8125 C 3.820312 0.8125 4.085938 0.742188 4.359375 0.609375 C 4.578125 0.503906 4.816406 0.335938 5.078125 0.109375 C 5.335938 -0.109375 5.570312 -0.332031 5.78125 -0.5625 C 6.195312 -1.03125 6.570312 -1.523438 6.90625 -2.046875 C 7 -2.179688 7.125 -2.382812 7.28125 -2.65625 C 9.332031 -6.113281 9.726562 -8.3125 8.46875 -9.25 C 8.082031 -8.789062 7.6875 -8.222656 7.28125 -7.546875 C 6.851562 -6.816406 6.15625 -5.519531 5.1875 -3.65625 C 4.320312 -2.019531 3.613281 -0.734375 3.0625 0.203125 Z M 2.828125 0.609375 "/></g></g></g><g fill="#401e05" fill-opacity="1"><g transform="translate(124.220111, 287.210508)"><g><path d="M 1.765625 1.234375 C 1.609375 1.148438 1.492188 1.023438 1.421875 0.859375 C 1.359375 0.691406 1.363281 0.523438 1.4375 0.359375 L 1.671875 -0.09375 L 1.875 -0.453125 C 1.914062 -0.554688 1.972656 -0.679688 2.046875 -0.828125 C 2.179688 -1.078125 2.367188 -1.46875 2.609375 -2 L 3.15625 -3.15625 C 3.457031 -3.726562 3.9375 -4.578125 4.59375 -5.703125 C 5.175781 -6.691406 5.65625 -7.53125 6.03125 -8.21875 C 6.113281 -8.382812 6.226562 -8.644531 6.375 -9 C 6.519531 -9.363281 6.632812 -9.625 6.71875 -9.78125 C 7.164062 -10.613281 7.640625 -10.894531 8.140625 -10.625 C 8.523438 -10.414062 8.929688 -10.097656 9.359375 -9.671875 C 9.796875 -9.253906 9.953125 -8.9375 9.828125 -8.71875 C 9.773438 -8.601562 9.664062 -8.523438 9.5 -8.484375 C 9.34375 -8.441406 9.179688 -8.425781 9.015625 -8.4375 C 8.609375 -8.875 8.222656 -9.222656 7.859375 -9.484375 C 7.773438 -9.316406 7.644531 -9.066406 7.46875 -8.734375 C 7.21875 -8.265625 6.988281 -7.84375 6.78125 -7.46875 C 6.445312 -6.914062 6.207031 -6.5 6.0625 -6.21875 L 5.953125 -5.90625 L 6.25 -5.796875 C 6.34375 -5.742188 6.460938 -5.679688 6.609375 -5.609375 C 7.171875 -5.304688 7.367188 -4.992188 7.203125 -4.671875 C 7.128906 -4.535156 7.015625 -4.453125 6.859375 -4.421875 C 6.710938 -4.398438 6.554688 -4.429688 6.390625 -4.515625 C 6.171875 -4.628906 6.007812 -4.722656 5.90625 -4.796875 L 5.46875 -5.03125 C 5.320312 -4.71875 5.09375 -4.269531 4.78125 -3.6875 C 4.46875 -3.09375 4.179688 -2.5625 3.921875 -2.09375 C 3.515625 -1.394531 3.210938 -0.867188 3.015625 -0.515625 C 2.671875 0.140625 2.507812 0.472656 2.53125 0.484375 L 3.125 0.78125 C 3.320312 0.875 3.5625 0.992188 3.84375 1.140625 C 4.300781 1.378906 4.453125 1.640625 4.296875 1.921875 C 4.210938 2.078125 4.070312 2.160156 3.875 2.171875 C 3.675781 2.191406 3.472656 2.148438 3.265625 2.046875 Z M 1.765625 1.234375 "/></g></g></g><g fill="#401e05" fill-opacity="1"><g transform="translate(129.510912, 290.022318)"><g><path d="M 4.578125 2.40625 C 4.296875 2.269531 4.109375 2.128906 4.015625 1.984375 C 3.929688 1.835938 3.941406 1.644531 4.046875 1.40625 C 4.222656 1.050781 4.457031 0.410156 4.75 -0.515625 L 4.859375 -0.921875 L 3.203125 -2.0625 C 2.992188 -1.8125 2.625 -1.296875 2.09375 -0.515625 C 1.738281 0.0351562 1.4375 0.363281 1.1875 0.46875 C 1.050781 0.539062 0.898438 0.535156 0.734375 0.453125 C 0.597656 0.390625 0.492188 0.28125 0.421875 0.125 C 0.347656 -0.0195312 0.34375 -0.15625 0.40625 -0.28125 L 0.46875 -0.34375 L 0.515625 -0.40625 C 2.804688 -3.113281 4.875 -5.867188 6.71875 -8.671875 C 6.738281 -8.722656 6.78125 -8.800781 6.84375 -8.90625 C 6.914062 -9.019531 7.007812 -9.1875 7.125 -9.40625 C 7.375 -9.832031 7.582031 -10.164062 7.75 -10.40625 C 7.925781 -10.65625 8.09375 -10.828125 8.25 -10.921875 L 8.875 -10.625 C 9.039062 -10.539062 9.160156 -10.425781 9.234375 -10.28125 C 9.316406 -10.144531 9.320312 -10.007812 9.25 -9.875 C 8.8125 -8.945312 8.289062 -7.519531 7.6875 -5.59375 C 7.039062 -3.632812 6.535156 -2.28125 6.171875 -1.53125 C 6.140625 -1.457031 6.082031 -1.257812 6 -0.9375 C 5.925781 -0.632812 5.867188 -0.441406 5.828125 -0.359375 C 5.785156 -0.273438 5.671875 0.113281 5.484375 0.8125 C 5.316406 1.4375 5.191406 1.835938 5.109375 2.015625 L 5.09375 2.03125 C 4.96875 2.300781 4.796875 2.425781 4.578125 2.40625 Z M 5.046875 -1.640625 C 5.085938 -1.828125 5.175781 -2.054688 5.3125 -2.328125 C 5.832031 -3.410156 6.394531 -4.835938 7 -6.609375 L 7.734375 -8.578125 C 5.859375 -5.992188 4.476562 -4.03125 3.59375 -2.6875 C 3.71875 -2.476562 4.203125 -2.128906 5.046875 -1.640625 Z M 5.046875 -1.640625 "/></g></g></g><g fill="#401e05" fill-opacity="1"><g transform="translate(135.212323, 292.76143)"><g><path d="M 1.671875 0.828125 C 1.347656 0.703125 1.523438 -0.160156 2.203125 -1.765625 L 3.46875 -4.671875 C 3.863281 -5.523438 4.285156 -6.484375 4.734375 -7.546875 C 4.898438 -7.941406 5.113281 -8.566406 5.375 -9.421875 C 5.707031 -10.335938 5.914062 -10.894531 6 -11.09375 C 6.0625 -11.25 6.1875 -11.359375 6.375 -11.421875 C 6.5625 -11.492188 6.726562 -11.5 6.875 -11.4375 C 7.3125 -11.257812 7.6875 -10.988281 8 -10.625 C 8.320312 -10.257812 8.566406 -9.847656 8.734375 -9.390625 C 9.054688 -8.347656 9.140625 -7.335938 8.984375 -6.359375 C 8.898438 -5.859375 8.765625 -5.390625 8.578125 -4.953125 C 8.503906 -4.785156 8.429688 -4.640625 8.359375 -4.515625 L 7.703125 -3.015625 C 7.367188 -2.222656 7.082031 -1.613281 6.84375 -1.1875 C 6.507812 -0.601562 6.140625 -0.117188 5.734375 0.265625 C 5.273438 0.691406 4.722656 1 4.078125 1.1875 C 3.773438 1.28125 3.410156 1.347656 2.984375 1.390625 Z M 2.875 0.234375 C 3.125 0.335938 3.378906 0.367188 3.640625 0.328125 C 3.898438 0.296875 4.148438 0.203125 4.390625 0.046875 C 4.597656 -0.0976562 4.816406 -0.300781 5.046875 -0.5625 C 5.285156 -0.820312 5.488281 -1.082031 5.65625 -1.34375 C 6 -1.851562 6.304688 -2.382812 6.578125 -2.9375 C 6.648438 -3.082031 6.75 -3.300781 6.875 -3.59375 C 8.4375 -7.289062 8.535156 -9.53125 7.171875 -10.3125 C 6.847656 -9.78125 6.535156 -9.15625 6.234375 -8.4375 C 5.898438 -7.664062 5.375 -6.296875 4.65625 -4.328125 C 4.007812 -2.585938 3.472656 -1.210938 3.046875 -0.203125 Z M 2.875 0.234375 "/></g></g></g><g fill="#401e05" fill-opacity="1"><g transform="translate(141.855878, 295.540413)"><g/></g></g><g fill="#401e05" fill-opacity="1"><g transform="translate(145.539086, 296.971646)"><g><path d="M 3.25 1.5 C 2.925781 1.382812 2.660156 1.175781 2.453125 0.875 C 2.242188 0.570312 2.109375 0.210938 2.046875 -0.203125 C 1.941406 -1.097656 1.992188 -2.007812 2.203125 -2.9375 C 2.390625 -3.84375 2.617188 -4.695312 2.890625 -5.5 C 2.941406 -5.644531 2.988281 -5.765625 3.03125 -5.859375 L 3.140625 -6.203125 C 3.160156 -6.273438 3.164062 -6.3125 3.15625 -6.3125 L 3.28125 -6.640625 L 3.734375 -7.96875 C 3.878906 -8.363281 4.144531 -8.988281 4.53125 -9.84375 C 4.800781 -10.425781 5.148438 -10.96875 5.578125 -11.46875 C 5.742188 -11.6875 5.914062 -11.835938 6.09375 -11.921875 C 6.28125 -12.003906 6.460938 -12.015625 6.640625 -11.953125 C 7.140625 -11.785156 7.5625 -11.539062 7.90625 -11.21875 C 8.257812 -10.90625 8.515625 -10.539062 8.671875 -10.125 C 8.828125 -9.71875 8.910156 -9.253906 8.921875 -8.734375 C 8.941406 -8.222656 8.90625 -7.691406 8.8125 -7.140625 C 8.707031 -6.578125 8.554688 -6 8.359375 -5.40625 L 8.3125 -5.25 C 8.175781 -4.863281 8.0625 -4.507812 7.96875 -4.1875 L 7.625 -3.109375 C 6.394531 0.523438 4.9375 2.0625 3.25 1.5 Z M 3.4375 0.6875 C 3.664062 0.757812 3.90625 0.734375 4.15625 0.609375 C 4.40625 0.484375 4.640625 0.28125 4.859375 0 C 5.304688 -0.550781 5.679688 -1.195312 5.984375 -1.9375 C 6.265625 -2.5625 6.484375 -3.109375 6.640625 -3.578125 C 6.835938 -4.148438 7.039062 -4.910156 7.25 -5.859375 C 7.519531 -6.859375 7.734375 -7.59375 7.890625 -8.0625 L 8.015625 -8.40625 C 8.140625 -8.894531 8.113281 -9.367188 7.9375 -9.828125 C 7.757812 -10.285156 7.453125 -10.585938 7.015625 -10.734375 C 6.585938 -10.878906 6.222656 -10.722656 5.921875 -10.265625 C 5.660156 -9.910156 5.425781 -9.425781 5.21875 -8.8125 C 5.144531 -8.570312 5.082031 -8.367188 5.03125 -8.203125 L 4.859375 -7.6875 L 4.546875 -6.84375 C 4.421875 -6.582031 4.304688 -6.296875 4.203125 -5.984375 C 3.972656 -5.296875 3.765625 -4.609375 3.578125 -3.921875 C 3.316406 -2.960938 3.132812 -2 3.03125 -1.03125 C 2.90625 -0.0195312 3.039062 0.550781 3.4375 0.6875 Z M 3.4375 0.6875 "/></g></g></g><g fill="#401e05" fill-opacity="1"><g transform="translate(152.702194, 299.356278)"><g><path d="M 4.4375 1.625 C 4.164062 1.539062 4 1.160156 3.9375 0.484375 C 3.851562 -0.265625 3.847656 -1.007812 3.921875 -1.75 L 3.96875 -2.453125 C 4.125 -4.390625 4.191406 -5.503906 4.171875 -5.796875 L 3.953125 -5.859375 C 3.835938 -5.484375 3.726562 -5.140625 3.625 -4.828125 L 3.328125 -3.78125 C 2.835938 -2.050781 2.578125 -0.671875 2.546875 0.359375 L 2.171875 0.828125 L 1.65625 0.671875 L 1.46875 0.28125 L 1.84375 -0.96875 C 2.175781 -2.132812 2.625 -3.90625 3.1875 -6.28125 C 3.800781 -8.8125 4.25 -10.578125 4.53125 -11.578125 C 4.707031 -12.191406 5.003906 -12.441406 5.421875 -12.328125 C 6.117188 -12.128906 6.632812 -11.785156 6.96875 -11.296875 C 7.300781 -10.816406 7.378906 -10.257812 7.203125 -9.625 L 6.8125 -8.265625 C 6.757812 -8.078125 6.664062 -7.863281 6.53125 -7.625 C 6.394531 -7.394531 6.269531 -7.210938 6.15625 -7.078125 L 5.578125 -6.5 L 5.125 -6 L 5.09375 -5.53125 L 4.96875 -4.078125 C 4.851562 -3.035156 4.789062 -2.179688 4.78125 -1.515625 C 4.78125 -0.859375 4.832031 -0.242188 4.9375 0.328125 L 4.984375 0.59375 C 5.035156 0.875 5.039062 1.09375 5 1.25 C 4.957031 1.382812 4.882812 1.488281 4.78125 1.5625 C 4.6875 1.632812 4.570312 1.65625 4.4375 1.625 Z M 4.28125 -6.765625 C 4.601562 -6.835938 4.953125 -7.160156 5.328125 -7.734375 C 5.703125 -8.304688 5.96875 -8.863281 6.125 -9.40625 C 6.238281 -9.8125 6.296875 -10.210938 6.296875 -10.609375 C 6.296875 -10.816406 6.238281 -11 6.125 -11.15625 C 6.007812 -11.3125 5.84375 -11.414062 5.625 -11.46875 L 5.5625 -11.390625 L 5.484375 -11.234375 L 4.859375 -8.953125 C 4.691406 -8.273438 4.5 -7.546875 4.28125 -6.765625 Z M 4.28125 -6.765625 "/></g></g></g><g fill="#401e05" fill-opacity="1"><g transform="translate(158.627474, 301.020107)"><g/></g></g><g fill="#401e05" fill-opacity="1"><g transform="translate(162.426377, 301.979436)"><g><path d="M 5.015625 1.25 C 4.710938 1.1875 4.5 1.09375 4.375 0.96875 C 4.25 0.851562 4.210938 0.671875 4.265625 0.421875 C 4.347656 0.0234375 4.421875 -0.65625 4.484375 -1.625 L 4.5 -2.046875 L 2.625 -2.75 C 2.476562 -2.46875 2.238281 -1.882812 1.90625 -1 C 1.695312 -0.375 1.484375 0.0195312 1.265625 0.1875 C 1.148438 0.28125 1.007812 0.3125 0.84375 0.28125 C 0.6875 0.238281 0.550781 0.15625 0.4375 0.03125 C 0.332031 -0.09375 0.296875 -0.222656 0.328125 -0.359375 L 0.390625 -0.4375 L 0.421875 -0.515625 C 1.992188 -3.679688 3.34375 -6.851562 4.46875 -10.03125 C 4.476562 -10.082031 4.503906 -10.164062 4.546875 -10.28125 C 4.597656 -10.40625 4.648438 -10.585938 4.703125 -10.828125 C 4.847656 -11.296875 4.972656 -11.671875 5.078125 -11.953125 C 5.179688 -12.234375 5.300781 -12.429688 5.4375 -12.546875 L 6.109375 -12.40625 C 6.296875 -12.363281 6.441406 -12.285156 6.546875 -12.171875 C 6.648438 -12.066406 6.6875 -11.9375 6.65625 -11.78125 C 6.445312 -10.78125 6.273438 -9.269531 6.140625 -7.25 C 5.972656 -5.195312 5.804688 -3.765625 5.640625 -2.953125 C 5.617188 -2.878906 5.609375 -2.671875 5.609375 -2.328125 C 5.609375 -2.015625 5.597656 -1.8125 5.578125 -1.71875 C 5.554688 -1.625 5.539062 -1.222656 5.53125 -0.515625 C 5.507812 0.140625 5.476562 0.5625 5.4375 0.75 L 5.4375 0.78125 C 5.375 1.0625 5.234375 1.21875 5.015625 1.25 Z M 4.53125 -2.78125 C 4.519531 -2.988281 4.546875 -3.238281 4.609375 -3.53125 C 4.859375 -4.695312 5.066406 -6.210938 5.234375 -8.078125 L 5.484375 -10.171875 C 4.285156 -7.210938 3.410156 -4.972656 2.859375 -3.453125 C 3.023438 -3.285156 3.582031 -3.0625 4.53125 -2.78125 Z M 4.53125 -2.78125 "/></g></g></g><g fill="#401e05" fill-opacity="1"><g transform="translate(168.575087, 303.269854)"><g><path d="M 4.1875 1.03125 C 3.738281 0.789062 3.164062 0.613281 2.46875 0.5 C 2.238281 0.601562 2.003906 0.632812 1.765625 0.59375 C 1.609375 0.5625 1.488281 0.46875 1.40625 0.3125 C 1.320312 0.15625 1.289062 0 1.3125 -0.15625 C 1.5 -1.257812 1.796875 -2.726562 2.203125 -4.5625 C 2.609375 -6.507812 2.894531 -7.96875 3.0625 -8.9375 L 3.078125 -9.0625 C 3.148438 -9.90625 3.222656 -10.535156 3.296875 -10.953125 C 3.503906 -12.191406 3.832031 -12.773438 4.28125 -12.703125 C 4.414062 -12.671875 4.523438 -12.597656 4.609375 -12.484375 C 4.691406 -12.367188 4.71875 -12.242188 4.6875 -12.109375 C 4.664062 -11.960938 4.609375 -11.722656 4.515625 -11.390625 C 4.421875 -11.066406 4.359375 -10.816406 4.328125 -10.640625 C 4.179688 -9.753906 4.050781 -8.957031 3.9375 -8.25 C 3.832031 -7.550781 3.707031 -6.765625 3.5625 -5.890625 C 3.457031 -5.691406 3.378906 -5.421875 3.328125 -5.078125 L 3.28125 -4.828125 L 2.96875 -3.296875 C 2.875 -2.835938 2.773438 -2.3125 2.671875 -1.71875 C 2.515625 -0.8125 2.648438 -0.320312 3.078125 -0.25 C 3.109375 -0.238281 3.148438 -0.234375 3.203125 -0.234375 C 3.265625 -0.234375 3.347656 -0.222656 3.453125 -0.203125 C 3.585938 -0.191406 3.75 -0.171875 3.9375 -0.140625 C 4.644531 -0.015625 4.960938 0.238281 4.890625 0.625 C 4.867188 0.757812 4.789062 0.863281 4.65625 0.9375 C 4.519531 1.007812 4.363281 1.039062 4.1875 1.03125 Z M 4.1875 1.03125 "/></g></g></g><g fill="#401e05" fill-opacity="1"><g transform="translate(174.121224, 304.199336)"><g><path d="M 2.203125 0.28125 C 1.054688 0.125 0.507812 -0.15625 0.5625 -0.5625 C 0.601562 -0.863281 0.820312 -0.988281 1.21875 -0.9375 L 1.4375 -0.90625 L 1.640625 -0.859375 C 1.753906 -0.847656 1.832031 -0.875 1.875 -0.9375 C 1.925781 -1 1.960938 -1.117188 1.984375 -1.296875 C 2.015625 -1.515625 2.050781 -1.863281 2.09375 -2.34375 C 2.09375 -2.664062 2.125 -3.238281 2.1875 -4.0625 C 2.332031 -6.101562 2.472656 -7.640625 2.609375 -8.671875 C 2.660156 -9.046875 2.707031 -9.378906 2.75 -9.671875 L 2.921875 -10.6875 C 2.984375 -11.113281 3.007812 -11.476562 3 -11.78125 C 2.78125 -11.757812 2.625 -11.753906 2.53125 -11.765625 C 2.226562 -11.804688 2.097656 -11.988281 2.140625 -12.3125 C 2.160156 -12.46875 2.273438 -12.59375 2.484375 -12.6875 C 2.691406 -12.78125 2.957031 -12.832031 3.28125 -12.84375 C 3.820312 -12.863281 4.289062 -12.847656 4.6875 -12.796875 C 4.851562 -12.773438 4.984375 -12.703125 5.078125 -12.578125 C 5.179688 -12.460938 5.222656 -12.332031 5.203125 -12.1875 C 5.179688 -12.039062 5.117188 -11.914062 5.015625 -11.8125 C 4.921875 -11.71875 4.804688 -11.679688 4.671875 -11.703125 C 4.585938 -11.710938 4.519531 -11.726562 4.46875 -11.75 L 4.3125 -11.765625 C 4.1875 -11.785156 4.085938 -11.769531 4.015625 -11.71875 C 3.953125 -11.664062 3.910156 -11.554688 3.890625 -11.390625 C 3.722656 -10.109375 3.546875 -8.175781 3.359375 -5.59375 C 3.328125 -5.113281 3.28125 -4.40625 3.21875 -3.46875 C 3.207031 -2.84375 3.160156 -2.21875 3.078125 -1.59375 L 2.96875 -0.828125 C 3.039062 -0.828125 3.171875 -0.816406 3.359375 -0.796875 C 3.921875 -0.710938 4.175781 -0.445312 4.125 0 L 4.109375 0.125 L 3.5625 0.390625 C 3.550781 0.390625 3.507812 0.382812 3.4375 0.375 C 3.363281 0.375 3.226562 0.363281 3.03125 0.34375 C 2.601562 0.3125 2.328125 0.289062 2.203125 0.28125 Z M 2.203125 0.28125 "/></g></g></g><g fill="#401e05" fill-opacity="1"><g transform="translate(178.905861, 304.858809)"><g><path d="M 2.75 0.1875 C 2.894531 -1.332031 2.898438 -2.921875 2.765625 -4.578125 C 2.628906 -6.242188 2.363281 -8.285156 1.96875 -10.703125 C 1.957031 -10.847656 1.914062 -11.054688 1.84375 -11.328125 C 1.675781 -12.097656 1.597656 -12.582031 1.609375 -12.78125 C 1.617188 -12.894531 1.675781 -12.992188 1.78125 -13.078125 C 1.894531 -13.171875 2.015625 -13.210938 2.140625 -13.203125 C 2.335938 -13.179688 2.507812 -13 2.65625 -12.65625 C 2.789062 -12.320312 2.90625 -11.875 3 -11.3125 C 3.101562 -10.757812 3.203125 -10.082031 3.296875 -9.28125 C 3.390625 -8.507812 3.472656 -7.328125 3.546875 -5.734375 L 3.609375 -4.96875 L 3.671875 -3.15625 C 3.679688 -2.65625 3.695312 -2.296875 3.71875 -2.078125 C 4.132812 -3.523438 4.6875 -5.609375 5.375 -8.328125 C 5.957031 -10.660156 6.363281 -12.25 6.59375 -13.09375 L 7.015625 -13.046875 C 7.140625 -13.035156 7.242188 -12.976562 7.328125 -12.875 C 7.410156 -12.78125 7.445312 -12.675781 7.4375 -12.5625 C 7.394531 -12.09375 7.289062 -11.582031 7.125 -11.03125 C 6.957031 -10.488281 6.726562 -9.84375 6.4375 -9.09375 C 6.195312 -8.457031 6.03125 -7.972656 5.9375 -7.640625 C 5.851562 -7.316406 5.75 -6.796875 5.625 -6.078125 C 5.363281 -4.484375 5.066406 -3.054688 4.734375 -1.796875 C 4.503906 -1.054688 4.25 -0.476562 3.96875 -0.0625 C 3.695312 0.351562 3.410156 0.546875 3.109375 0.515625 Z M 2.75 0.1875 "/></g></g></g><g fill="#401e05" fill-opacity="1"><g transform="translate(186.256441, 305.510021)"><g><path d="M 2.125 0.359375 C 1.945312 0.359375 1.789062 0.289062 1.65625 0.15625 C 1.519531 0.03125 1.453125 -0.117188 1.453125 -0.296875 L 1.484375 -0.8125 L 1.5 -1.21875 C 1.488281 -1.332031 1.488281 -1.472656 1.5 -1.640625 C 1.507812 -1.921875 1.507812 -2.347656 1.5 -2.921875 L 1.515625 -4.203125 C 1.535156 -4.847656 1.597656 -5.820312 1.703125 -7.125 C 1.804688 -8.269531 1.878906 -9.234375 1.921875 -10.015625 C 1.929688 -10.203125 1.925781 -10.484375 1.90625 -10.859375 C 1.882812 -11.242188 1.878906 -11.523438 1.890625 -11.703125 C 1.929688 -12.648438 2.234375 -13.113281 2.796875 -13.09375 C 3.234375 -13.070312 3.734375 -12.960938 4.296875 -12.765625 C 4.867188 -12.566406 5.148438 -12.34375 5.140625 -12.09375 C 5.140625 -11.96875 5.078125 -11.847656 4.953125 -11.734375 C 4.835938 -11.628906 4.695312 -11.546875 4.53125 -11.484375 C 3.976562 -11.710938 3.484375 -11.867188 3.046875 -11.953125 C 3.046875 -11.753906 3.035156 -11.46875 3.015625 -11.09375 C 2.992188 -10.5625 2.96875 -10.082031 2.9375 -9.65625 C 2.863281 -9.007812 2.820312 -8.53125 2.8125 -8.21875 L 2.859375 -7.890625 L 3.171875 -7.90625 C 3.273438 -7.90625 3.410156 -7.90625 3.578125 -7.90625 C 4.210938 -7.875 4.519531 -7.671875 4.5 -7.296875 C 4.488281 -7.160156 4.421875 -7.046875 4.296875 -6.953125 C 4.179688 -6.859375 4.03125 -6.816406 3.84375 -6.828125 C 3.601562 -6.835938 3.414062 -6.851562 3.28125 -6.875 L 2.78125 -6.90625 C 2.789062 -6.5625 2.78125 -6.054688 2.75 -5.390625 C 2.71875 -4.722656 2.6875 -4.125 2.65625 -3.59375 C 2.570312 -2.78125 2.523438 -2.171875 2.515625 -1.765625 C 2.472656 -1.023438 2.460938 -0.65625 2.484375 -0.65625 L 3.15625 -0.640625 C 3.375 -0.640625 3.644531 -0.628906 3.96875 -0.609375 C 4.476562 -0.585938 4.726562 -0.414062 4.71875 -0.09375 C 4.707031 0.0820312 4.613281 0.21875 4.4375 0.3125 C 4.269531 0.40625 4.066406 0.445312 3.828125 0.4375 Z M 2.125 0.359375 "/></g></g></g><g clip-path="url(#653ed63698)"><g clip-path="url(#9d856affc0)"><path fill="#ffda8f" d="M 21.429688 174.621094 L 28.1875 174.621094 L 28.1875 181.148438 L 21.429688 181.148438 Z M 21.429688 174.621094 " fill-opacity="1" fill-rule="nonzero"/></g></g><g clip-path="url(#3e8aff2f10)"><g clip-path="url(#19d417cccb)"><path fill="#f4c26d" d="M 132.816406 290.617188 L 145.570312 290.617188 L 145.570312 299.84375 L 132.816406 299.84375 Z M 132.816406 290.617188 " fill-opacity="1" fill-rule="nonzero"/></g></g><g clip-path="url(#cc24727304)"><g clip-path="url(#2b09f9c1f6)"><path fill="#f4c26d" d="M 185.914062 302.992188 L 193.488281 302.992188 L 193.488281 311.308594 L 185.914062 311.308594 Z M 185.914062 302.992188 " fill-opacity="1" fill-rule="nonzero"/></g></g><g clip-path="url(#ea32883b7c)"><g clip-path="url(#fea5cd045e)"><path fill="#f4c26d" d="M 186.289062 302.242188 L 193.707031 302.242188 L 193.707031 309.515625 L 186.289062 309.515625 Z M 186.289062 302.242188 " fill-opacity="1" fill-rule="nonzero"/></g></g><g clip-path="url(#15e5203919)"><g clip-path="url(#460ad0614b)"><path fill="#f4c26d" d="M 183.890625 301.941406 L 194.015625 301.941406 L 194.015625 309.96875 L 183.890625 309.96875 Z M 183.890625 301.941406 " fill-opacity="1" fill-rule="nonzero"/></g></g><g clip-path="url(#423ef99e39)"><g clip-path="url(#957ddd155c)"><path fill="#f4c26d" d="M 182.316406 301.34375 L 193.652344 301.34375 L 193.652344 310.191406 L 182.316406 310.191406 Z M 182.316406 301.34375 " fill-opacity="1" fill-rule="nonzero"/></g></g><g clip-path="url(#50803d48a6)"><g clip-path="url(#79036c0e4a)"><path fill="#f4c26d" d="M 170.390625 299.917969 L 190.65625 299.917969 L 190.65625 309.367188 L 170.390625 309.367188 Z M 170.390625 299.917969 " fill-opacity="1" fill-rule="nonzero"/></g></g><g clip-path="url(#2749aba69c)"><g clip-path="url(#b894a75ead)"><path fill="#f4c26d" d="M 171.363281 299.765625 L 183.078125 299.765625 L 183.078125 308.691406 L 171.363281 308.691406 Z M 171.363281 299.765625 " fill-opacity="1" fill-rule="nonzero"/></g></g><g clip-path="url(#636822a769)"><g clip-path="url(#3a8b28987e)"><path fill="#f4c26d" d="M 172.488281 299.691406 L 179.90625 299.691406 L 179.90625 306.96875 L 172.488281 306.96875 Z M 172.488281 299.691406 " fill-opacity="1" fill-rule="nonzero"/><path fill="#f4c26d" d="M 172.488281 299.691406 L 179.90625 299.691406 L 179.90625 306.96875 L 172.488281 306.96875 Z M 172.488281 299.691406 " fill-opacity="1" fill-rule="nonzero"/></g></g><g clip-path="url(#578e50909b)"><g clip-path="url(#d9c617e90e)"><path fill="#f4c26d" d="M 172.339844 299.242188 L 179.757812 299.242188 L 179.757812 306.515625 L 172.339844 306.515625 Z M 172.339844 299.242188 " fill-opacity="1" fill-rule="nonzero"/></g></g><g clip-path="url(#21368d7ee8)"><g clip-path="url(#cb7b03e1d4)"><path fill="#f4c26d" d="M 156.515625 297.066406 L 179.675781 297.066406 L 179.675781 308.691406 L 156.515625 308.691406 Z M 156.515625 297.066406 " fill-opacity="1" fill-rule="nonzero"/></g></g><g clip-path="url(#50daf5a4c9)"><g clip-path="url(#0a6683968b)"><path fill="#f4c26d" d="M 157.863281 296.691406 L 175.863281 296.691406 L 175.863281 306.292969 L 157.863281 306.292969 Z M 157.863281 296.691406 " fill-opacity="1" fill-rule="nonzero"/></g></g><g clip-path="url(#f3a81d498d)"><g clip-path="url(#9e620316fe)"><path fill="#f4c26d" d="M 165.890625 298.191406 L 174.667969 298.191406 L 174.667969 306.21875 L 165.890625 306.21875 Z M 165.890625 298.191406 " fill-opacity="1" fill-rule="nonzero"/></g></g><g clip-path="url(#d5fdf9b741)"><g clip-path="url(#92edcaa823)"><path fill="#f4c26d" d="M 166.566406 298.34375 L 174.816406 298.34375 L 174.816406 307.109375 L 166.566406 307.109375 Z M 166.566406 298.34375 " fill-opacity="1" fill-rule="nonzero"/></g></g><g clip-path="url(#b3ffffe0dd)"><g clip-path="url(#57a7af2e99)"><path fill="#f4c26d" d="M 141.589844 293.015625 L 166.9375 293.015625 L 166.9375 305.917969 L 141.589844 305.917969 Z M 141.589844 293.015625 " fill-opacity="1" fill-rule="nonzero"/></g></g><g clip-path="url(#958612e9e2)"><g clip-path="url(#4336642c2b)"><path fill="#f4c26d" d="M 142.339844 292.867188 L 162.226562 292.867188 L 162.226562 303.515625 L 142.339844 303.515625 Z M 142.339844 292.867188 " fill-opacity="1" fill-rule="nonzero"/></g></g><g clip-path="url(#af8bd6e661)"><g clip-path="url(#60e499390a)"><path fill="#f4c26d" d="M 133.265625 291.066406 L 142.253906 291.066406 L 142.253906 299.46875 L 133.265625 299.46875 Z M 133.265625 291.066406 " fill-opacity="1" fill-rule="nonzero"/></g></g><g clip-path="url(#cfe0565bc8)"><g clip-path="url(#3f413bf9e1)"><path fill="#f4c26d" d="M 133.789062 291.292969 L 142.402344 291.292969 L 142.402344 299.167969 L 133.789062 299.167969 Z M 133.789062 291.292969 " fill-opacity="1" fill-rule="nonzero"/></g></g><g clip-path="url(#08196a8c0e)"><g clip-path="url(#48997136e9)"><path fill="#f4c26d" d="M 133.265625 290.242188 L 142.25 290.242188 L 142.25 298.792969 L 133.265625 298.792969 Z M 133.265625 290.242188 " fill-opacity="1" fill-rule="nonzero"/></g></g><g clip-path="url(#93a5d4f8fa)"><g clip-path="url(#33381da90f)"><path fill="#f4c26d" d="M 131.988281 290.242188 L 141.273438 290.242188 L 141.273438 298.792969 L 131.988281 298.792969 Z M 131.988281 290.242188 " fill-opacity="1" fill-rule="nonzero"/></g></g><g clip-path="url(#b0007bca15)"><g clip-path="url(#64754f0f3e)"><path fill="#f4c26d" d="M 133.265625 290.167969 L 146.769531 290.167969 L 146.769531 300.21875 L 133.265625 300.21875 Z M 133.265625 290.167969 " fill-opacity="1" fill-rule="nonzero"/></g></g><g clip-path="url(#c8d37fec5f)"><g clip-path="url(#e3e1067e8c)"><path fill="#f4c26d" d="M 132.515625 289.941406 L 153.816406 289.941406 L 153.816406 300.890625 L 132.515625 300.890625 Z M 132.515625 289.941406 " fill-opacity="1" fill-rule="nonzero"/></g></g><g clip-path="url(#943f2ae763)"><g clip-path="url(#49f6f3833f)"><path fill="#ffda8f" d="M 184.050781 192.226562 L 286.316406 192.226562 L 286.316406 226.050781 L 184.050781 226.050781 Z M 184.050781 192.226562 " fill-opacity="1" fill-rule="nonzero"/></g></g></svg>